<svg xmlns="http://www.w3.org/2000/svg" version="1" width="347.578" height="336" viewBox="0 0 260.684 252"><path d="M199.252 0c-.3 0-.8.4-1.1 1-.3.5-.1 1 .4 1 .6 0 1.1-.5 1.1-1 0-.6-.2-1-.4-1zm15.3 5c-.5 0-.7.4-.4 1 .3.5.8 1 1.1 1 .2 0 .4-.5.4-1 0-.6-.5-1-1.1-1zm44.5 0c-.8 0-1.2.4-.9 1 .3.5 1 1 1.6 1 .5 0 .9-.5.9-1 0-.6-.7-1-1.6-1zm-7.07 2.09c-.2-.002-.43.285-.73.81-.3.4.1 1.7.8 2.7 1.3 1.7 1.4 1.7.9-.9-.375-1.812-.633-2.61-.97-2.61zm-78.93.91c-.2 0-.4.4-.4 1 0 .5.5 1 1.1 1 .5 0 .7-.5.4-1-.3-.6-.8-1-1.1-1zm86.98 4.18c-.205.051-.355.595-.28 1.42 0 1.1.3 1.4.6.6.3-.7.2-1.6-.1-1.9-.075-.1-.15-.138-.22-.12zm-64.916 1.156c-.269.009-.464.189-.464.564 0 .5.5 1.3 1 1.6.6.3 1 .2 1-.4 0-.5-.4-1.3-1-1.6a1.012 1.012 0 0 0-.536-.164zM256.552 16c-.5 0-.7.4-.4 1 .3.5.8 1 1.1 1 .2 0 .4-.5.4-1 0-.6-.5-1-1.1-1zm-6.555.125c-.22-.067-.12.3.255 1.175.3 1 .9 1.5 1.2 1.2.3-.3 0-1.1-.7-1.8-.375-.338-.623-.535-.755-.575zM159.652 20c-.5 0-1 .4-1 1 0 .5.5 1 1 1 .6 0 1-.5 1-1 0-.6-.4-1-1-1zm89.4 1c-.8 0-1.2.5-.9 1 .4.6 1.1.8 1.6.5 1.4-.9 1.1-1.5-.7-1.5zm10.7 2c-.5 0-1.1.7-1.5 1.5-.3.9 0 1.5.9 1.5.8 0 1.5-.7 1.5-1.5s-.4-1.5-.9-1.5zm-51.6 1c-.2 0-.7.4-1 1-.3.5.1 1 1 1s1.3-.5 1-1c-.3-.6-.8-1-1-1zm42.13.031c-.396-.095-.63.444-.63 1.569 0 .8.5 1.2 1 .9.6-.4.8-1.1.5-1.6-.338-.525-.633-.811-.87-.869zm-70.63.969c-.5 0-1 .4-1 1 0 .5.5 1 1 1 .6 0 1-.5 1-1 0-.6-.4-1-1-1zm77.123 4.094a4.03 4.03 0 0 0-.723.006c-1.1 0-1.4.3-.6.6.7.3 1.6.2 1.9-.1.3-.225.037-.45-.577-.506zm-8.623.906c-.8 0-1.5.4-1.5 1 0 .5.7.7 1.5.4.8-.4 1.5-.8 1.5-1 0-.2-.7-.4-1.5-.4zm6.5 7c-.5 0-1 .7-1 1.6 0 .8.5 1.2 1 .9.6-.3 1-1 1-1.6 0-.5-.4-.9-1-.9zm-3.6 5c-.8 0-1.2.4-.9 1 .3.5 1 1 1.6 1 .5 0 .9-.5.9-1 0-.6-.7-1-1.6-1zm-51.5 1c-.4 0-.6.7-.3 1.5.4.8 1 1.5 1.5 1.5.4 0 .6-.7.3-1.5-.4-.8-1-1.5-1.5-1.5zm31.1 1c-.5 0-1 .5-1 1.1 0 .5.5.7 1 .4.6-.3 1-.8 1-1.1 0-.2-.4-.4-1-.4zm-26 1c-.5 0-1 .4-1 1 0 .5.5 1 1 1 .6 0 1-.5 1-1 0-.6-.4-1-1-1zm-1.268 4.016c-.379.032-.82.346-1.232.984-.7 1.1.2 3 1.3 3 .4 0 .8-.9.9-2 .125-1.313-.336-2.04-.968-1.984zM199.652 52c-.5 0-1 .4-1 1 0 .5.5 1 1 1 .6 0 1-.5 1-1 0-.6-.4-1-1-1zm30.4 4c-.8 0-1.2.4-.9 1 .3.5 1 1 1.6 1 .5 0 .9-.5.9-1 0-.6-.7-1-1.6-1zm13.22.034c-.428.013-.683.379-.42 1.166.2.6 1 1.4 1.6 1.6.7.2 1-.2.6-1.2-.394-1.012-1.23-1.581-1.78-1.566zM226.839 58.1c-.562-.05-1.187.3-2.187 1-1.2.8-1 .9.8.4s2.2-.2 2.2 1.6.3 2 1.2 1.1c.8-.8.8-1.5-.2-2.7-.75-.9-1.25-1.35-1.813-1.4zM198.052 60c-.2 0-.4.4-.4 1 0 .5.5 1 1.1 1 .5 0 .7-.5.4-1-.3-.6-.8-1-1.1-1zm49.564 1.053c-.737-.084-.84.447.036 1.447.7.8 1.7 1.2 2.2.9.6-.4.5-1-.3-1.5-.825-.525-1.495-.796-1.936-.847zm11.31.022c-.174 0-.374.275-.674.825-.4.7-.5 1.5-.2 1.8.9.9 1.9-.4 1.4-1.8-.2-.55-.35-.825-.525-.825zm-35.876 1.384c-.358.033-.717.235-.998.641-.4.7-.3.9.4.5.5-.3 1.3 0 1.5.6.4.9.6 1 .6.1.068-1.169-.714-1.913-1.502-1.84zm-32.723.003c-.4.03-.675.225-.675.538 0 .6.7 1 1.5 1s1.5-.2 1.5-.4-.7-.6-1.5-1a1.98 1.98 0 0 0-.825-.138zM140.552 63c-.5 0-.7.4-.4 1 .3.5.8 1 1.1 1 .2 0 .4-.5.4-1 0-.6-.5-1-1.1-1zm112.2 0c-.5 0-1.3.4-1.6 1-.3.5-.2 1 .4 1 .5 0 1.3-.5 1.6-1 .3-.6.2-1-.4-1zm-22.5 1c-.8 0-1.8.4-2.1 1-.3.5.1 1 .9 1s1.8-.5 2.1-1c.3-.6-.1-1-.9-1zm-47.62.53c-.487-.043-.58.295-.28.97.3.8.9 1.2 1.4.9 1.2-.7 1.1-1.1-.5-1.7-.25-.1-.457-.156-.62-.17zm61.42 2.47c-.8 0-1.2.5-.9 1 .4.6 1.1.8 1.6.5 1.4-.9 1.1-1.5-.7-1.5zm0 3c-.2 0-.4.4-.4 1 0 .5.5 1 1.1 1 .5 0 .7-.5.4-1-.3-.6-.8-1-1.1-1zm8.6 2c-.5 0-1 .4-1 1 0 .5.5 1 1 1 .6 0 1-.5 1-1 0-.6-.4-1-1-1zm-49.472.42c-.31.061-.703.53-.928 1.28-.6 1.4-.5 1.5.5.6.7-.7 1-1.5.7-1.8a.288.288 0 0 0-.272-.08zm12.082 1.036c-.34-.061-.898.094-1.61.544-.8.5-1.1 1.2-.7 1.6.4.4 1.3.2 1.9-.4.937-.938.977-1.641.41-1.744zm4.854 1.88c-.269.009-.464.189-.464.564 0 .5.5 1.3 1 1.6.6.3 1 .2 1-.4 0-.5-.4-1.3-1-1.6a1.012 1.012 0 0 0-.536-.164zm31.273.739c-.287 0-1.087.475-2.337 1.425-1 .8-1.4 1.5-.8 1.5.6 0 1.7-.7 2.4-1.5.8-.95 1.025-1.425.737-1.425zM201.052 77c-.2 0-.4.4-.4 1 0 .5.5 1 1.1 1 .5 0 .7-.5.4-1-.3-.6-.8-1-1.1-1zm32.5 0c-.5 0-.7.4-.4 1 .3.5.8 1 1.1 1 .2 0 .4-.5.4-1 0-.6-.5-1-1.1-1zm9.5 1c-.2 0-.4.4-.4 1 0 .5.5 1 1.1 1 .5 0 .7-.5.4-1-.3-.6-.8-1-1.1-1zm-33.277 1.094a4.03 4.03 0 0 0-.723.006c-1.1 0-1.4.3-.6.6.7.3 1.6.2 1.9-.1.3-.225.037-.45-.577-.506zm-4.742 1.086c-.206.051-.356.595-.281 1.42 0 1.1.3 1.4.6.6.3-.7.2-1.6-.1-1.9-.075-.1-.15-.138-.22-.12zm19.119.82c-.5 0-1.7.5-2.5 1s-1 1-.5 1c.6 0 1.7-.5 2.5-1s1.1-1 .5-1zm14.1 1c-.3 0-.8.4-1.1 1-.3.5-.1 1 .4 1 .6 0 1.1-.5 1.1-1 0-.6-.2-1-.4-1zm-39.1 1c-.8 0-1.5.4-1.5.9 0 1.7 1.8 2.1 2.4.6.3-.9 0-1.5-.9-1.5zm3.7 0c-.4 0-.8.9-.9 2-.1 1.1.2 1.8.8 1.5 1.1-.7 1.2-3.5.1-3.5zm6.2 0c-.2 0-.4.4-.4 1 0 .5.5 1 1.1 1 .5 0 .7-.5.4-1-.3-.6-.8-1-1.1-1zm19.775.225c-.075.05.025.725.225 2.075.3 2.2-.1 3.1-1.8 3.7-1.5.6-1.6.9-.5.9 2.7.1 4.1-2.3 2.9-5-.5-1.15-.75-1.725-.825-1.675zm18.282.65c-.52.113-1.532.9-2.657 2.025-1.6 1.5-2.5 3-2.2 3.4.8.8 5.6-4.1 5.2-5.3-.05-.125-.17-.162-.343-.125zm-10.182 3.2c-.175 0-.375.275-.675.825-.4.7-.5 1.5-.2 1.8.9.9 1.9-.4 1.4-1.8-.2-.55-.35-.825-.525-.825zm-109.091.11c-.114-.008-.184.09-.184.315 0 .5.5 1.7 1 2.5s1 1 1 .5c0-.6-.5-1.7-1-2.5-.313-.5-.626-.804-.816-.816zm77.816.815c-.5 0-1 .4-1 1 0 .5.5 1 1 1 .6 0 1-.5 1-1 0-.6-.4-1-1-1zm51.2 2c-.4 0-.8.9-.9 2-.1 1.1.2 2 .8 2 .5 0 .9-.9.9-2s-.4-2-.8-2zm-62.7 1c-.6 0-1.6.5-2.3 1.2-.7.7-1.1 2.1-1.1 3.2.1 2 .1 2 .6.1.3-1.1 1.3-2.5 2.2-3.2.9-.7 1.1-1.3.6-1.3zm-181.377.094a4.03 4.03 0 0 0-.723.006c-1.1 0-1.4.3-.6.6.7.3 1.6.2 1.9-.1.3-.225.037-.45-.577-.506zm197.6 1.373c-.492-.042-.998.183-1.223.633-.9 1.4-.2 2 1.4 1 .8-.6.9-1.1.3-1.5a1.318 1.318 0 0 0-.477-.133zM214.052 95c-.8 0-1.1.6-.8 1.5.4.8 1.2 1.5 2 1.5s1.1-.6.8-1.5c-.4-.8-1.2-1.5-2-1.5zm18.5 0c-.5 0-.7.4-.4 1 .3.5.8 1 1.1 1 .2 0 .4-.5.4-1 0-.6-.5-1-1.1-1zm-171 1c-.5 0-.7.4-.4 1 .3.5.8 1 1.1 1 .2 0 .4-.5.4-1 0-.6-.5-1-1.1-1zm166.1 2c-.6 0-.9.4-.5.9.3.6-.3 1.5-1.2 2.1-1.7 1-1.6 1.1.2.8 2.1-.3 3.5-3.8 1.5-3.8zm11.7 1c-.2 0-1.3.8-2.3 1.7-2 1.8-2.9 5.9-1.5 6.7.4.3.8-.4.8-1.5.1-1 .9-2.6 1.7-3.5 1.4-1.4 2.2-3.4 1.3-3.4zm-79.2 1c-.2 0-.7.4-1 1-.3.5.1 1 1 1s1.3-.5 1-1c-.3-.6-.8-1-1-1zm39.5 0c-.5 0-1 .5-1 1.1 0 .5.5.7 1 .4.6-.3 1-.8 1-1.1 0-.2-.4-.4-1-.4zm-4.42.102c-.437.023-.605.398-.38.998.2.7 1 1.5 1.7 1.7.8.3 1.2-.1.9-.9-.2-.7-1-1.5-1.7-1.7a1.314 1.314 0 0 0-.52-.098zm-77.68.898c-.5 0-.7.4-.4 1 .3.5.8 1 1.1 1 .2 0 .4-.5.4-1 0-.6-.5-1-1.1-1zm91.589.272a54.29 54.29 0 0 0-2.19.028c-3 .1-3.8.4-2.8 1 .9.5 2.7.4 4.3-.1 1.876-.675 2.232-.9.69-.928zm-17.199.623c-.349.049-.678.293-1.09.705-1 1.1-1 1.4.2 1.4.8 0 2.3 1.5 3.5 3.2 2 3.2 2.1 3.2 2.1.8 0-1.4-1-3.5-2.3-4.6-1.188-1.125-1.828-1.586-2.41-1.505zm47.71 2.105c-.5 0-1 .5-1 1.1 0 .5.5.7 1 .4.6-.3 1-.8 1-1.1 0-.2-.4-.4-1-.4zm-17.4 1.034c-.455.042-.62.422-.4 1.166.3.7 1.5 1.4 2.9 1.6 2.3.2 2.3.2.5-1.3-1.35-1.012-2.416-1.519-3-1.466zm-43.477.06a4.03 4.03 0 0 0-.723.006c-1.1 0-1.4.3-.6.6.7.3 1.6.2 1.9-.1.3-.225.037-.45-.577-.506zm49.22.392c-.216.024-.343.126-.343.314 0 .6.9 1.2 2 1.5 1.1.3 2 .3 2 .1 0-.2-.9-.8-2-1.4-.688-.375-1.296-.554-1.657-.514zm-38.443.514c-.5 0-.9.4-.9 1 0 .5.7 1 1.6 1 .8 0 1.2-.5.9-1-.3-.6-1-1-1.6-1zm13.585.388c-.353.004-.698.2-.885.512-.4.5-.2 1.2.3 1.5.5.4 1.2.2 1.5-.3.4-.5.2-1.2-.3-1.5a.95.95 0 0 0-.615-.212zm-27.235.562c-.1 0-.15.25-.15.75-.1.7-.1 1.6-.1 2 0 .5.9.9 2 .9 1.1.1 2-.3 2-.7 0-.5-.6-.9-1.4-.9-.8 0-1.7-.6-1.9-1.3-.2-.5-.35-.75-.45-.75zm23.25.35c-.9 0-1.5 1-1.5 2.5 0 1.8-.4 2.3-1.5 1.8-.9-.3-1.8.1-2.2 1-.8 2.1.4 2.9 2.2 1.4.8-.7 1.5-.8 1.5-.2 0 .5-.7 1.2-1.5 1.6-2.3.9-1.9 3.5.5 2.9 1.4-.4 2-1.4 2-3.4 0-1.6.5-2.9 1.3-2.9s.7-.4-.3-1-1.1-1-.2-1c.6 0 1.2-.6 1.2-1.3 0-.8-.7-1.4-1.5-1.4zm-5.868.102c-.351.023-.632.398-.632.998 0 .9.5 1.6 1 1.6.6 0 1-.4 1-.9 0-.6-.4-1.3-1-1.6a.63.63 0 0 0-.368-.098zm-10.632.598c-.5 0-1 .4-1 1 0 .5.5 1 1 1 .6 0 1-.5 1-1 0-.6-.4-1-1-1zm52.21 1.58c-.36.001-.835.07-1.41.22-1 .2-1.8.8-1.8 1.3 0 1.1 1.1 1.1 3-.1 1.35-.825 1.293-1.425.21-1.42zm-48.21.42c-.5 0-1 .4-1 .9 0 .6.5 1.3 1 1.6.6.3 1-.1 1-.9 0-.9-.4-1.6-1-1.6zm3.7 0c-.7 0-.7.4.1 1.2 1.7 1.7 1.5 3.9-.3 3.2-.8-.4-1.5-.1-1.5.5s.5 1.1 1 1.1c.6 0 1 .7 1 1.5 0 1.7 1.6 2 2.5.5.3-.6.1-1-.5-1-.7 0-.9-.8-.5-1.9.7-2.2-.3-5.1-1.8-5.1zm26.8.062c-.175-.087-.55.238-1 1.038-.4.6-.5 1.2-.2 1.5.2.3.7-.2 1-1.1.35-.85.375-1.35.2-1.438zm-12.4.938c-.5 0-1.1.7-1.5 1.5-.3.8-1.2 1.5-2.1 1.5-.8 0-1.5.7-1.5 1.5 0 .9.6 1.2 1.8.8.9-.3.1.9-1.8 2.6-3.6 3.2-3.1 3.9 1.5 2.1 2.4-.9 2.6-.8 2.1.7-.4.9-.1 2 .6 2.5 1 .6.9.8-.4.8-1.1 0-1.5.6-1.1 2.1.5 1.7.2 2-1.8 1.7-1.6-.2-2.4.2-2.4 1.2 0 .8.5 1.4 1.1 1.3.7-.1 1 .6.7 1.8-.5 1.9-.3 2 1.4 1.1 2.1-1.2 6.3-.5 6.3.9 0 .5.7.9 1.5.9s1.4-.5 1.3-1.1c-.2-.6.3-1.4 1-1.6.9-.3 1.1.9 1 4.6-.2 3.8-.6 5-1.7 4.8-.7-.1-1.6.3-1.8 1-.3.7.9 1.1 3.1 1 2-.1 3.6-.5 3.6-.9 0-.5 1.2-.7 2.6-.6 1.6.2 2.9-.3 3.2-1.1.4-1.1-.4-1.3-3.6-.9l-4.1.6.6-3.2c.3-1.7 1.1-3.4 1.6-3.7 1.5-1-2.8-5.1-5-4.7-1 .2-1.8.9-1.8 1.6 0 1.3-1.4 1.7-1.7.4 0-.4-.8-1.2-1.6-1.8-1.3-1-1.1-1.3 1.4-1.8 1.7-.4 4.3-.2 5.8.4 3.5 1.3 3.4 1.4 3.4-1.4 0-1.4-.7-2.7-1.5-3-.8-.4-1.3-1.3-.9-2.1.4-1.2-.3-1.5-3.2-1.5h-3.7l2.3 1.8c1.8 1.4 2 2 1 3-.6.6-1.6 1.2-2.2 1.2-.6 0-.5-.5.2-1.2.9-.9.7-1.4-.5-2.4-1.4-1-1.5-1.6-.6-3.6.7-1.5.8-3 .2-3.9-.6-.9-.9-1-.9-.2 0 .7-.7 1-1.5.7-1.1-.5-1.2-1.1-.5-2.4 1.2-2.3 1.3-3 .1-3zm-34.5 1c-.3 0-.8.4-1.1 1-.3.5-.1 1 .4 1 .6 0 1.1-.5 1.1-1 0-.6-.2-1-.4-1zm58.1.1c-.7 0-2.1.4-3.1.8-2.3.9-.8 2.1 2 1.6 1-.2 2.3-.4 2.7-.4 1.3-.1-.3-2.1-1.6-2zm28.3.9c-.5 0-1 .4-1 1 0 .5.5 1 1 1 .6 0 1-.5 1-1 0-.6-.4-1-1-1zm-23.05.062c-.525-.037-.95.238-.95.838 0 .5-.3 1.8-.6 2.8-.5 1.6-.4 1.6.8.3 2.1-2.5 4.9-1.4 4.2 1.6-.4 1.4-.2 2.4.5 2.4 1.3 0 2.6-4.5 1.7-5.9-.4-.6-1.3-.8-2-.5-.8.3-1.7.1-2.1-.5-.4-.65-1.025-1-1.55-1.038zm-55.32 2.97c-.396-.096-.63.443-.63 1.568 0 .8.5 1.2 1 .9.6-.4.8-1.1.5-1.6-.338-.525-.633-.811-.87-.869zm6.959.906c-.345-.036-.59.243-.59.962 0 .6.5 1.1 1 1.1.6 0 1 .6.9 1.2-.3 2.1 1.2 4.8 2.8 4.8.8 0 1.2-.4.9-.9-.4-.5 0-1.2.6-1.5.7-.3.3-.3-.9 0-1.8.4-2.2 0-2.5-2.2-.206-1.788-1.452-3.385-2.21-3.462zm43.41.062c-.5 0-1 .4-1 1 0 .5.5 1 1 1 .6 0 1-.5 1-1 0-.6-.4-1-1-1zm26.1 0c-.6 0-1.3.4-1.6 1-.3.6.1.7.9.4 1.8-.7 2.1-1.4.7-1.4zm-19.46.172c-.257.028-.696.497-1.44 1.328-1.7 1.9-1.6 2.8.3 3.1 1 .1 1.5-.6 1.5-2.2 0-1.575-.03-2.265-.36-2.228zm-13.258.008c-.206.051-.356.595-.281 1.42 0 1.1.3 1.4.6.6.3-.7.2-1.6-.1-1.9-.075-.1-.15-.138-.22-.12zm-82.381.82c-.5 0-1 .5-1 1.1 0 .5.5.7 1 .4.6-.3 1-.8 1-1.1 0-.2-.4-.4-1-.4zm80.6 0c-.3 0-.8.4-1.1 1-.3.5-.1 1 .4 1 .6 0 1.1-.5 1.1-1 0-.6-.2-1-.4-1zm-46 2c-.2 0-.6.7-1 1.5-.3.8-.1 1.5.4 1.5.6 0 1-.7 1-1.5s-.2-1.5-.4-1.5zm52.782.112c-.777-.006-1.382.2-1.382.688 0 .5 1.1 1.2 2.5 1.5 1.6.3 2.4 0 2.2-.7-.25-.875-2.023-1.477-3.318-1.488zM219.652 122c-.4 0-1 .6-1.3 1.4-.7 1.9.3 5.7 1.4 5.1.4-.3.6-1.2.3-1.9-.3-.8 0-1.7.5-2.1 1.2-.7.6-2.5-.9-2.5zm22.762.1c-.237 0-.812.3-1.762.9-.9.6-1 1-.3 1 .6 0 1.5-.5 1.8-1 .4-.6.5-.9.262-.9zm-18.158.96c-.34.035-.73.34-1.104.94-.7 1.1.2 3 1.3 3 .4 0 .8-.9.8-2 0-1.312-.43-2-.996-1.94zm20.108 1.04c-.262 0-.762.3-1.712.9-1.3.8-1.2 1 .3 1 .9 0 1.7-.5 1.7-1 0-.6-.025-.9-.288-.9zm-9.277.378c-.14.094-.085.734.165 1.922.4 1.7.3 2.7-.3 2.3-.5-.3-1.5-.2-2.3.4-1.1.6-.5.9 2.1.9 1.9 0 3.9-.4 4.5-.9.5-.5 1.8-.5 2.9-.1 1.9.8 1.9.9-.2.9-1.2.1-2.5.6-2.9 1.2-.3.6-1.4.9-2.4.6-1.3-.3-1.7 0-1.3.9.3.8.9 1.4 1.4 1.4.5 0 .9.4.9 1 0 .5-.7 1-1.5 1s-1.5.4-1.5 1c0 .5.3 1 .8 1 .4 0 1.2 1.1 1.9 2.5 1.2 2.8.2 3.3-1.7 1-.7-.8-1.8-1.5-2.6-1.5-.7 0-1.8-.8-2.3-1.8-1-1.6-1-1.6-1.1 0 0 .9 1.4 2.5 3 3.5 1.7 1 2.8 2.3 2.6 3-.7 1.6 3.2 2.7 4.8 1.3.8-.6 2.3-1.3 3.5-1.5 2-.4 2-.3.5 2.1-1.9 2.8-.2 3.4 2.3.9 1.4-1.4 1.7-1.4 2.9.2 1.2 1.6 1.3 1.5 1.4-1.5 0-1.7.5-3.2 1.1-3.2.6 0 .8-.8.4-1.9-.3-1.1-.1-2.2.4-2.5 1.1-.7 4.1-6.4 4.1-7.8 0-2.3-2.8-.4-3.4 2.2-.4 2.3-1.5 3.5-4 4.5-1.9.8-4 2.3-4.5 3.2-1 1.7-1 1.7-1.1.1 0-1 1.2-2.4 2.8-3.3 2.6-1.5 2.6-1.6.2-1-2.3.6-2.4.5-.7-.8 1-.8 2.7-1.3 3.7-1 1.6.4 2 0 2-1.7 0-1.9-.2-2-1.5-1-2.2 1.8-4.5.5-4.5-2.6 0-1.8-.4-2.5-1.4-2.1-.7.3-2.3-.1-3.5-.9-1.2-.8-2.6-1.2-3.2-.8-.6.3-1.5 0-2-.7-.225-.338-.38-.478-.465-.422zm-41.682.575c-.542-.05-.816.322-.553.847.2.7.7 1.2 1.1 1.2 1.2-.1.9-1.5-.3-2a1.336 1.336 0 0 0-.247-.047zm37.747.247c-.8 0-1.5.4-1.5.9 0 .4.7.8 1.5.8s1.5-.4 1.5-.8c0-.5-.7-.9-1.5-.9zm24.3.8c-.2.1-1.1.3-2 .6-1 .2-1.8.8-1.8 1.3 0 .4.9.6 2 .3s2-.9 2-1.4c0-.5-.1-.8-.2-.8zm-66.4.9c-.8 0-1.2.4-.9 1 .3.5 1 1 1.6 1 .5 0 .9-.5.9-1 0-.6-.7-1-1.6-1zm68.862.412c-.212-.012-.262.288-.262.888 0 .8.7 1.7 1.5 2.1.8.3 1.5.3 1.5 0s-.7-1.2-1.5-2c-.65-.65-1.025-.975-1.238-.988zm-30.603.565c-.392.024-.66.348-.66 1.023 0 .5.9 1.4 2.1 2 1.9 1.1 2 1 .9-.9-.687-1.375-1.687-2.164-2.34-2.123zm21.237.053c-.325.008-.746.22-1.196.67-1 .9-.9 2.3.2 2.3.5 0 1.1-.7 1.5-1.5.312-.938.038-1.485-.504-1.47zm-145.496.97c-.8 0-1.2.5-.9 1 .4.6 1.1.8 1.6.5 1.4-.9 1.1-1.5-.7-1.5zm-38.835.46c-.358.047-.39.702-.265 2.14.2 2.2-.3 2.9-2.3 3.5-2.3.6-2.3.7-.3.8 4.9.2 7.1-3.1 3.9-5.9-.488-.375-.82-.567-1.035-.54zm130.935.54c-.8 0-1.5.2-1.5.4s.7.9 1.5 1.6c1.2 1 1.5 1 1.5-.4 0-.9-.7-1.6-1.5-1.6zm-110.611.608c-.577.04-.89.33-.89.892 0 .7-1 1.6-2.2 2-2.1.7-2.2.7-.4 1.2 1.1.3 2.4-.1 3-.9.6-.8 1.8-1.7 2.6-2 1-.3.8-.6-.8-1-.524-.15-.965-.216-1.31-.192zm156.51 1.892c2 0 2.3.3 1.4 1.9-.7 1.3-.7 2.1 0 2.5.7.4.7 1.2.3 2-.6 1-1.1.4-1.6-1.9-.5-2.4-1-2.9-1.6-1.9-.7 1.1-.9.9-.9-.6 0-1.4.7-2 2.4-2zm-19.6.5c-.9 0-2 .9-2.3 2.1-.9 2.6.2 3.8 1.2 1.3.3-1 1.1-2.2 1.7-2.6.7-.5.4-.8-.6-.8zm-144.065.092c-.58.027-1.547.233-2.934.608-1 .2-1.8.9-1.8 1.4 0 1.4 3 1.1 4.6-.6 1-1 1.102-1.453.134-1.408zm152.039.325c-.558-.048-1.548.083-2.973.383-1.9.4-2.4 1.7-.9 2.6.5.3 1.9-.2 3.1-1.2 1.437-1.125 1.704-1.703.773-1.783zm-34.773.583c-.5 0-1 .5-1 1.1 0 .5.5.7 1 .4.6-.3 1-.8 1-1.1 0-.2-.4-.4-1-.4zm62.592.04c-.287.025-.555.222-.892.56-1.1 1.1.3 2.4 2.4 2.4 1.8 0 1.9-.2.5-1.5-1-1.062-1.53-1.5-2.008-1.46zM41.052 135c-.2 0-.4.4-.4 1 0 .5.5 1 1.1 1 .5 0 .7-.5.4-1-.3-.6-.8-1-1.1-1zm25.7 1c-.6 0-1.3.4-1.6 1-.3.5.1 1 .9 1 .9 0 1.6-.5 1.6-1 0-.6-.4-1-.9-1zm23.337.575c-.412-.025-.837.025-1.137.125-1.6.6-1.7 4.3-.2 4.3.6 0 .9-.6.6-1.4-.4-.9.1-1.6 1.1-1.8.9-.2 1.3-.6.7-.9-.25-.2-.65-.3-1.063-.325zm131.963.425c-.2 0-.4.4-.4 1 0 .5.5 1 1.1 1 .5 0 .7-.5.4-1-.3-.6-.8-1-1.1-1zm-138.02.18c-.205.051-.355.595-.28 1.42 0 1.1.3 1.4.6.6.3-.7.2-1.6-.1-1.9-.075-.1-.15-.138-.22-.12zm154.62.82c.5 0 1.4.9 2 2 .6 1.1.7 2 .3 2-.5 0-1.4-.9-2.1-2-.7-1.1-.8-2-.2-2zm20.9 0c-.5 0-.9.5-.9 1.1 0 .8-.4.8-1.3.1-.7-.6-1.8-.7-2.8-.2-1.2.7-1.5 2.2-1.3 6.6.3 5.1 1.4 9.2 1.4 5 0-.9.4-1.4 1-1.1.6.4.9-.4.7-1.7-.1-1.8.3-2.3 1.9-2.1 1.8.2 2.1-.3 2.1-3.7 0-2.2-.4-4-.8-4zm-188.9 1c-.5 0-1 .5-1 1.1 0 .5.5.7 1 .4.6-.3 1-.8 1-1.1 0-.2-.4-.4-1-.4zm5 0c-.5 0-1 .5-1 1.1 0 .5.5.7 1 .4.6-.3 1-.8 1-1.1 0-.2-.4-.4-1-.4zm-13.37.031c-.396-.095-.63.444-.63 1.569 0 .8.5 1.2 1 .9.6-.4.8-1.1.5-1.6-.338-.525-.633-.811-.87-.869zm186.75.149c.07-.018.145.02.22.12.3.3.4 1.2.1 1.9-.3.8-.6.5-.6-.6-.075-.825.075-1.369.28-1.42zm-66 1c-.205.051-.355.595-.28 1.42 0 1.1.3 1.4.6.6.3-.7.2-1.6-.1-1.9-.075-.1-.15-.138-.22-.12zm-26.748.222c-.351.023-.632.398-.632.998 0 .9.5 1.6 1 1.6.6 0 1-.4 1-.9 0-.6-.4-1.3-1-1.6a.63.63 0 0 0-.368-.098zm43.79 1.893c-.272.061-.797.305-1.322.605-1.1.7-1.1 1 0 1.5s1.1.7.2 1.2c-1.5.7-1.7 3.4-.3 3.4.6 0 1-.7 1-1.6 0-1 .5-1.4 1.5-1 1.3.5 1.4.2.4-1.7-.6-1.2-1.2-2.3-1.3-2.4-.025-.025-.088-.025-.179-.005zm-111.747.167c-.4.03-.675.226-.675.538 0 .6.7 1 1.5 1s1.5-.2 1.5-.4-.7-.6-1.5-1a1.98 1.98 0 0 0-.825-.138zm-23.486.61c-.376-.021-1.14.272-2.19.928-.8.5-1.1 1.2-.8 1.6.4.3 1.4-.1 2.3-1 1.013-.956 1.172-1.501.69-1.528zm130.192.108c-.206.051-.356.595-.281 1.42 0 1.1.3 1.4.6.6.3-.7.2-1.6-.1-1.9-.075-.1-.15-.138-.22-.12zm27.806 1.445c-.312 0-.787.325-1.587.975-1.9 1.4-1.9 1.4.2 1.4 1.3 0 2.2.6 2.2 1.5 0 .8.5 1.5 1 1.5.6 0 1-.5 1-1.1 0-.5.5-.7 1-.4.6.3 1 .1 1-.4 0-.6-.9-1.1-1.9-1.1-1.1 0-2.1-.6-2.3-1.4-.15-.65-.3-.975-.613-.975zm-31.987.375c-.5 0-1.5.7-2.2 1.5-.7.8-.8 1.5-.2 1.5.5 0 1.5-.7 2.2-1.5.7-.8.8-1.5.2-1.5zm-24.077 1.094a4.03 4.03 0 0 0-.723.006c-1.1 0-1.4.3-.6.6.7.3 1.6.2 1.9-.1.3-.225.037-.45-.577-.506zM64.152 147c-2.6.1-2.8.2-1.2 1.1 1.4.8 2.2.8 3 0 .8-.8.3-1.1-1.8-1.1zm112.9 0c-.8 0-1.2.5-.9 1 .4.6 1.1.8 1.6.5 1.4-.9 1.1-1.5-.7-1.5zm82.1 0c-.8 0-1.5.4-1.5 1 0 .5.7.7 1.5.4.8-.4 1.5-.8 1.5-1 0-.2-.7-.4-1.5-.4zm-43.841.123c-.422-.004-.76.202-.76.577-.1.4-.2 1.4-.3 2.2-.1 1.5-2.6 2.8-2.6 1.4 0-.5-.9-.9-2-1-1.1-.1-2 .2-2 .8 0 .5.9.9 2 .9 1.4 0 2 .7 2 2.3 0 2.2.9 2.5 4.9 1.8.3-.1-.4-.8-1.5-1.6-1-.8-1.4-1.5-.8-1.5 1 0 1.4-.8 2.3-4.5.1-.5-.2-1.1-.8-1.3-.15-.05-.3-.075-.44-.077zm-4.66.077c-1.4 0-1.9.2-1.2.5.6.2 1.8.2 2.5 0 .6-.3.1-.5-1.3-.5zm36.6 1.875c-.274 0-.95.475-2.2 1.425-1.6 1.2-1.7 1.4-.3 1.5.9 0 1.9-.7 2.3-1.5.35-.95.476-1.425.2-1.425zm-11.074.15c-.325 0-.825.025-1.425.075-1.1.1-2.1.8-2.1 1.5 0 1.2.3 1.2 1.8.1.9-.7 1.9-1.4 2.1-1.6.1-.05-.05-.075-.375-.075zm-14.12.43c-.141.013-.243.545-.305 1.545-.1 1.9.4 2.8 1.4 2.8.8 0 1.5-.5 1.5-1 0-.6-.4-1-.9-1s-1.2-.8-1.4-1.8c-.113-.375-.211-.554-.296-.545zm-71.405.345c-.5 0-1 .5-1 1.1 0 .5.5.7 1 .4.6-.3 1-.8 1-1.1 0-.2-.4-.4-1-.4zm44.1 0c-.5 0-1.3.4-1.6 1-.3.5-.2 1 .4 1 .5 0 1.3-.5 1.6-1 .3-.6.2-1-.4-1zm64.9 0c-.5 0-1 .4-1 1 0 .5.5 1 1 1 .6 0 1-.5 1-1 0-.6-.4-1-1-1zm-71.8.05c-.15.025-.2.4-.2 1.15 0 .9.5 2 1 2.3 1.3.8 1.3-.5 0-2.5-.4-.65-.65-.975-.8-.95zm64.18.13c-.205.051-.355.595-.28 1.42 0 1.1.3 1.4.6.6.3-.7.2-1.6-.1-1.9-.075-.1-.15-.138-.22-.12zm-150.515.01c-.019-.006-.04-.002-.065.01-.1 0-1.8.3-3.5.5-1.8.2-3.3.8-3.3 1.2 0 1.4 6.3.7 6.8-.7.175-.525.196-.974.065-1.01zm63.945.105c-.26-.02-.535-.02-.81.005-1 .1-1.7.4-1.4.8.2.4 1.3.7 2.4.6 1-.1 1.7-.4 1.4-.8-.15-.3-.807-.544-1.59-.605zm83.675.093c-.353.004-.698.2-.885.512-.4.5-.2 1.2.3 1.5.5.4 1.2.2 1.5-.3.4-.5.2-1.2-.3-1.5a.95.95 0 0 0-.615-.212zM62.652 151c-.5 0-1 .4-1 1 0 .5.5 1 1 1 .6 0 1-.5 1-1 0-.6-.4-1-1-1zm155.718.41c-.411-.077-.718.765-.718 1.99 0 1.4.4 2.6.8 2.6 1.1 0 1.2-3.9.1-4.5a.415.415 0 0 0-.182-.09zM104.752 153c-.5 0-1.3.4-1.6 1-.3.5-.2 1 .4 1 .5 0 1.3-.5 1.6-1 .3-.6.2-1-.4-1zm67.9 0c-.5 0-1 .5-1 1.1 0 .5.5.7 1 .4.6-.3 1-.8 1-1.1 0-.2-.4-.4-1-.4zm32.015.162c-.419.004-.99.2-1.815.538-1 .4-1 .8-.1 1.9 1.7 2.1 3.8 1.7 3.2-.6-.313-1.312-.587-1.843-1.285-1.838zm-140.383.813c-.365-.006-.632.125-.632.425 0 .2.7.7 1.6 1 .8.3 1.2.2.9-.4-.375-.625-1.258-1.015-1.868-1.025zm187.644.023c-.67-.015-1.339.302-1.776 1.002-.6.9.8 1.4 2.8 1.1.4 0 .7.4.7 1.1 0 .6.2.9.5.6.3-.3.3-1.3-.1-2.2-.394-1.013-1.261-1.582-2.124-1.602zM162.652 155c-.5 0-1 .5-1 1.1 0 .5.5.7 1 .4.6-.3 1-.8 1-1.1 0-.2-.4-.4-1-.4zm16 0c-.5 0-1 .5-1 1.1 0 .5.5.7 1 .4.6-.3 1-.8 1-1.1 0-.2-.4-.4-1-.4zm20 0c-.5 0-.7.7-.4 1.5.4.8.8 1.5 1 1.5.2 0 .4-.7.4-1.5s-.4-1.5-1-1.5zm59.123.094a4.03 4.03 0 0 0-.723.006c-1.1 0-1.4.3-.6.6.7.3 1.6.2 1.9-.1.3-.225.037-.45-.577-.506zm-179.448.368c-.4.03-.675.226-.675.538 0 .6.7 1 1.5 1s1.5-.2 1.5-.4-.7-.6-1.5-1a1.98 1.98 0 0 0-.825-.138zM181.74 156c-.62.001-1.09.525-1.09 1.4 0 .8.4 1.7.9 2 1 .7 2.3-1.9 1.4-2.8-.412-.412-.838-.6-1.21-.6zm-13.59 2c-.8 0-1.5.4-1.5 1 0 .5.7.7 1.5.4.8-.4 1.5-.8 1.5-1 0-.2-.7-.4-1.5-.4zm80.915.025c-.795.045-1.414.5-1.414 1.475 0 1 .7 1.5 1.8 1.3 1-.2 1.6.3 1.5 1.2-.3 2.2-3.6 11.2-5 13.5-1.3 2.2-2.9 1.5-2-1 .9-2.1.5-2.9-1.5-3-1.3-.1-1.5.2-.7 1.6.5 1 .9 1.9.9 2.1 0 .6-5.5.2-6.7-.5-1.6-1-2.8 1.2-1.4 2.6 1.3 1.3 1.5 3 .2 2.2-1.1-.6-1.6.1-2.5 3.7-.5 2.1-.3 2.8.9 2.8.8 0 1.5-.6 1.5-1.4 0-1.1.7-1.2 2.8-.7 1.5.4 2.7 1.3 2.6 1.9-.1.7-.2 1.9-.2 2.8-.2 1.2-.9 1.5-2.7 1.2-1.3-.3-2.2-.2-2 .3.3.4 0 1.1-.6 1.5-.7.4-2.2-.4-3.6-2-1.3-1.5-2.8-2.4-3.3-2.1-1.2.8-1.3 3.5-.1 3.5.5 0 .7.9.4 2-.3 1.1-.1 2 .5 2 .5 0 1.2.7 1.6 1.5.4 1.2 0 1.4-1.9.9-2.1-.5-2.3-.3-2.1 1.8.1 1.3.6 2.9 1 3.6.4.6-.2 1.7-1.4 2.4-2.7 1.7-2.8 6.8-.1 6.8 1.4 0 1.8-.5 1.4-2-.7-2.6.3-2.6 1.7.1.8 1.5.8 2.4 0 3.4-1.2 1.5.3 3.1 2 2 .6-.3 1.3.1 1.6.9.8 2.1 2.4 1 2.4-1.7.1-2.1.1-2.1 1.5-.3s1.5 1.8 3.4-.5c1.6-1.9 2-2.1 2.1-.7 0 .9-.5 2-1 2.3-.6.4 0 1.5 1.5 2.6 3.2 2.6 4.9 1.6 4.1-2.4-.6-2.9-.5-3 .8-1.2.9 1.1 1.6 2.5 1.6 3.1 0 1.5-6 6.7-6.8 5.9-.4-.3 0-1 .8-1.6 1.3-.8 1.3-1 0-1.9-.8-.5-2.4-.7-3.5-.4-1.6.4-1.7.3-.5-.5 1.2-.9.9-1.1-1.3-1.1-1.6 0-2.6.4-2.2 1 .3.6-.3 1-1.3 1-1.5 0-2.1.9-2.5 3.2-.2 1.9 0 3.6.7 4 .6.4-.7.7-2.9.7-2.2-.1-3.2-.3-2.2-.6 1.1-.3 1.7-1.4 1.6-3.1-.1-2.6-.1-2.6-.8-.4l-.6 2.4-2.5-2.1c-1.4-1.1-3.3-2.8-4.3-3.8-1.8-1.7-1.9-1.7-3.2.1-.8 1-1.8 1.5-2.4 1.1-1.3-.8-1.5-2.6-.2-2.3.9.3 1.1-.2 1.1-2.3 0-.8-.5-.8-1.5.1-1.8 1.5-1.8 1.4-.6-2.8 1.1-3.7 0-4.2-2.2-1-.8 1.3-1.8 2-2.2 1.6-.4-.4 0-1.5.9-2.4 1.2-1.2 1.4-2 .7-2.7-.8-.8-1.7-.4-3.2 1.2-1.8 1.9-1.9 2.5-.8 3.2 1.1.7 1.1.9-.2.9-2.7 0-4.4 2.7-2.9 4.5.9 1 .9 1.5.1 1.5-.6 0-1.1.7-1.1 1.5s-.6 1.5-1.2 1.5c-.7 0-2 .5-2.8 1-1.3.9-1.2 1.3.8 2.8l2.3 1.8-4 1c-2.9.8-3.9.8-3.5 0 .3-.6-.3 0-1.5 1.4-2.1 2.7-2 2.8-3.7-2.7-.2-.7-1-1-2-.6-1.1.4-1.5.2-1.1-.4.6-.9-1.2-2.3-3-2.3-.6 0 .1 3.6 1.2 6.2.5 1.3.3 1.8-.8 1.8-.8 0-1.4-.8-1.3-1.8.1-1.3-.7-1.7-3.8-1.7-2.5 0-4.1.5-4.4 1.4-.3 1 0 1.2 1.2.8 1-.4 1.6-.1 1.6.7 0 2.4-3.8.6-4.9-2.3-.8-2.2-1-2.3-1.1-.6-.1 1.1-.2 3.1-.1 4.5.2 2.4.1 2.4-1.4.6-1.7-2.3-1.9-1.4-.5 3.2.8 2.9.7 3.2-.5 2.2-.8-.7-1.5-1.9-1.5-2.6 0-.8-.4-1.4-.9-1.4s-1.6-1.5-2.5-3.3c-1.2-2.2-1.6-2.5-1.3-1 .6 2.8-.4 3-2 .3-.8-1.2-.9-2.1-.3-2.5.6-.4.8-1.1.4-1.6-.3-.5-1-.7-1.5-.3-.6.3-2.1-.6-3.4-2-2.5-2.7-4.5-3.4-4.5-1.6 0 .5.7 1 1.5 1 1.8 0 3.9 3.6 2.5 4.5-.5.3-1-.1-1-.9 0-.9-.4-1.6-1-1.6-.5 0-1 .7-1 1.5 0 1.8-2.6 2-3.3.2-.4-.9-.8-.8-1.6.3-.8 1.2-1.2 1.2-2.9-.3-1.2-1.1-2.6-1.5-3.7-1.1-1.5.6-1.7.3-1.1-1.9.7-2.9-.8-3.8-1.8-1-.5 1.2-.9 1.4-1.8.5-1.7-1.7-3.8-1.5-3.8.4 0 1.1.5 1.4 1.6 1 1-.4 2.2.1 2.9 1.1 1.4 1.9 1.1 3.3-.6 3.3-.6 0-.7-.5-.3-1.1.4-.7 0-.9-1.4-.5-1.1.4-2.3.2-2.7-.5-.6-.8-1-.7-1.6.2-.7 1.1-.9 1-.9-.4 0-.9-.6-1.7-1.3-1.7-2.2 0-2.8 1.2-1.4 2.8.9 1.2.9 1.6 0 1.9-.7.3-1.3 1.2-1.3 2.1 0 1.4.2 1.5 1 .2.5-.8 1.2-1.2 1.5-.8.9.8 1.4 6 .6 5.6-.3-.2-1.9-1-3.4-1.8-1.5-.7-2.6-1.8-2.4-2.4.3-.7-.8-1.2-2.4-1.2-1.6-.1-2.9.2-2.9.7 0 .5.9.9 1.9.9 1.8 0 3.1 1.8 3.6 5 .1.8.6 2.4 1 3.5.6 1.6.3 1.5-1.4-.5-1.4-1.6-1.9-1.9-1.5-.7.5 1.3-.3 2.1-3.2 3.4-5.3 2.2-8.4 2.5-8.4.7 0-.8-.9-1.4-2-1.4s-2 .4-2 1c0 .5.7 1 1.5 1s1.5.4 1.5.9c0 1.2 6 2 6.7.8.3-.5 1-.2 1.5.7.5.9 1.4 1.6 1.9 1.6.6 0 .7-.5.4-1-.3-.6 0-1 .8-1s1.7-.7 2.1-1.5c.6-1.6 3.6-1 3.6.7 0 .6-.6.8-1.4.5-.8-.3-1.7.1-2 .9-.4.9.1 1.4 1.4 1.4 1.5 0 2.3-1.1 3.2-4.5 1.2-4.6 2.2-5.4 7.2-6.1 3.4-.4 4-.9 3.2-2.3-.4-.6-2-.8-3.7-.4-2.4.5-2.8.3-2.3-1.1.3-.9 1.4-1.6 2.4-1.6 1.1 0 2.2-.4 2.5-1 .3-.5 2.1-.9 4-.8l3.3.1-2.1 1.8c-2.6 2.1-1.5 3.9 1.3 2.1 1.1-.7 2-.8 2-.3 0 .6-.4 1.2-.9 1.6-.5.3-1.2 1.9-1.6 3.5-.4 1.7-1.1 3-1.6 3-.6 0-.6-.8.1-1.9 1.3-2.6 1.3-3.1-.5-3.1-1.1 0-1.5 1.1-1.5 3.6 0 2.8.3 3.5 1.5 3.1 1.9-.8 3.2 1.3 1.5 2.3-.8.5.2.8 2.4.7 2.8-.1 3.5-.4 3.1-1.6-.6-1.6 1.1-3.1 3.5-3.1 1.1.1 1 .4-.4 1.5-1.1.8-1.6 1.8-1.2 2.2.4.5 2.1-.7 3.7-2.5s3-2.7 3-2c.1.7.3 2 .4 2.8.1.8.3 2 .4 2.7.1 1.3 15.1 1.7 15.1.3 0-.4-.6-.8-1.2-.7-.7 0-2.6-.1-4.3-.2l-3-.3 3.5-.8c1.9-.5 3.8-.6 4.2-.4.5.3.8-.3.8-1.3.1-1.6.2-1.6 1.2.2 2.4 4.1 3.1 4.2 17.5 4.1l14.1-.1.6-2.7c.3-1.7 1-2.6 1.8-2.3.7.2 3.1-.4 5.3-1.4 3.2-1.5 3.5-2 1.8-2-1.3-.1-2.3-.5-2.3-1 0-1.4 4-.7 4.9.8.5.8.7 2 .4 2.8-.6 1.4.6 1.7 3.1.7.9-.3 1.6-1.3 1.6-2.1 0-1.2-.3-1.3-1.4-.4-1.2 1-1.3.8-.9-.8s.1-2.1-1.3-2.1c-1.8-.1-1.8-.1.1-1.6 1.8-1.3 2-1.3 2.7.6.4 1.2 1.6 2 3 2 2-.1 2.1-.2.6-1.1-2.2-1.2-2.4-3.3-.3-2.5.8.3 1.5.3 1.5.1 0-.8-4.7-5.5-5.6-5.5-.4 0-.3.5.4 1.2 1.6 1.6 1.5 2.8-.3 2.8-.8 0-1.5-.9-1.5-2 0-2.4-4.1-5.3-6.4-4.4-.9.3-1.6.1-1.6-.5s.7-1.1 1.5-1.1 1.5-.4 1.5-1c0-2.1 4.5-.3 5 2.1l.6 2.3 1.8-2.4c1.7-2.4 1.8-2.4 1.1-.3-.7 2.7.3 2.9 3.1.8 3.1-2.4 3.9-1.7 1.3 1.2-1.7 1.8-1.9 2.4-.7 2 1.8-.6 2.8 1.7 2.8 7.1 0 2.3.7 4 2.3 5.3l2.2 1.8-2.2.1c-1.3 0-2.3.5-2.3 1.1 0 .6.6.9 1.4.6.8-.3 2 .1 2.6.9 1.5 1.7 6.6 1.9 7.3.1.4-.9.8-.8 1.6.3.9 1.3 1.2 1.3 2.8-.2 1.6-1.7 1.6-1.8-.7-1.8-2 0-2.2-.2-1-1 1.7-1.1 5.7 1.1 5.2 2.9-.1.8.4.7 1.7-.1 1.1-.7 1.7-1.7 1.5-2.3-.3-.5.1-.2 1 .8 1 1.3 2.1 1.7 3.7 1.2 1.2-.4 1.9-.3 1.6.1-.3.5.6 1 1.9 1 2.2.2 2.4-.2 2.4-4.6 0-3.1-.5-5-1.4-5.3-.7-.3-1.6-1.5-1.9-2.6-.3-1.2-.1-1.9.4-1.5.5.3.9 1.2.9 2s.5 1.4 1 1.4c1.5 0 1.2-6-.4-7.6-.8-.8-2.1-1.4-3-1.4-1.8 0-3.2-3.8-1.8-5.2.6-.6.8-1.6.5-2.3-.3-1 .2-1.2 1.6-.8 2.6.7 2.7 1.9.1 3.3s-2.5 2.6.2 3.3c2.7.7 4.5-.2 2.7-1.4-1-.6-1.1-.9-.1-.9.6 0 1.2-1.1 1.2-2.5s-.4-2.5-1-2.5c-1.2 0-1.4-2.6-.2-3.3.4-.2.1-.2-.5-.1-.7.2-1.3-.5-1.3-1.5s-1-2.5-2.2-3.3c-1.7-1.2-1.9-1.8-1-3.4 1.1-1.8 1.1-1.8 1.2.3 0 1.4.6 2.3 1.5 2.3.8 0 1.4.5 1.3 1.1-.2.6.3 1.4 1 1.6 1.9.7 1.5-4.4-.5-5.7-1.7-1-1.7-1 0-2 .9-.6 1.7-1.8 1.7-2.6s-.3-1.3-.7-1.1c-.5.3-1.4-.2-2.2-1-1.2-1.3-1.1-1.4.8-.8 2.1.6 2.1.5 2-10.4-.1-7.4-.5-11.2-1.3-11.3-.6 0-1.5-.2-2.1-.3-.5-.2-1.5-.3-2.2-.4-.7 0-1-.7-.8-1.4.3-.6-.8-2.1-2.5-3.2-3.5-2.3-3.8-3.5-1-3.5 1.1 0 2 .7 2 1.5 0 1.8 1.2 1.9 2.7.4.6-.6 1.6-.8 2.3-.4.8.5.6 1.1-.7 2.1-1.7 1.2-1.7 1.3 0 1.4.9 0 1.6.5 1.5 1.1-.2.6.2 1.3.7 1.5 1.5.6 1.7-10.8.2-11.9-.9-.7-.9-1 .1-1.4 1.7-.7 1.5-4.3-.3-4.3-.9 0-1.2.6-.9 1.5.4.9 0 1.5-1 1.5-1.2 0-1.4.7-1 3.2.4 2.3.3 2.9-.4 1.9s-1.4-1-3-.2-2.1.7-2.6-.5c-1-2.7-.7-3.7.8-2.5.9.8 1.6.8 2 .2.4-.5.2-1.2-.4-1.6-.5-.3-1-1.3-1-2.2 0-1.3.3-1.3 1.5-.3 1 .9 1.5.9 1.5.1 0-.6-.4-1.1-.9-1.1s-1.1-1-1.3-2.3c-.25-1.688-2.062-2.75-3.386-2.675zm-35.027.513c-.287-.038-.487.262-.687.862-.7 1.8 1.8 4 3.8 3.2.8-.3 1.5-1.3 1.5-2.3 0-1.5-.2-1.6-1-.3-.9 1.3-1.2 1.3-2.4-.3-.55-.75-.925-1.125-1.213-1.162zm43.047.132c-.928-.032-1.434.23-1.434.83 0 .7 1.1 1.5 2.5 1.7 1.6.3 2.5.1 2.5-.7 0-.7-1.1-1.5-2.5-1.7a7.272 7.272 0 0 0-1.066-.13zm-109.434.33c-.5 0-.6.9-.3 2s.9 2 1.3 2c.5 0 .6-.9.3-2s-.9-2-1.3-2zm27 0c-1.1 0-2 .7-2 1.5 0 1.7.2 1.8 2.4.9 2.3-.9 2-2.4-.4-2.4zm20 0c-.5 0-1 .4-1 1 0 .5-1 1-2.2 1-2.1.1-2.1.2-.5 1.1 1.3.7 2.1.6 3.2-.5 1.7-1.7 1.9-2.6.5-2.6zm33.1 0c-1.1 0-2.1.3-2.1.6 0 2.1 2.4 4.4 4.6 4.4 1.7 0 2.8.7 3.1 2 .3 1.1 1 2 1.5 2 .6 0 .7-.8.4-1.7-.4-.9-.1-2 .6-2.5.9-.5.7-.8-.7-.9-1.1-.1-2.7-.3-3.5-.4-.8-.1-2.1-.3-2.9-.4-1.1-.1-1.1-.4-.1-1.6 1-1.3.9-1.5-.9-1.5zm16.293.07c-.26.02-.393.455-.393 1.33 0 .8.7 1.6 1.5 2 1.3.4 1.4.2.5-1.4-.732-1.294-1.273-1.955-1.607-1.93zm-33.88.03c-.263.075-.513.5-.813 1.3-.4 1-.1 1.3.8.9.8-.3 1.2-.9.9-1.4-.35-.6-.625-.875-.888-.8zm-146.113.9c-.2 0-.4.4-.4 1 0 .5.5 1 1.1 1 .5 0 .7-.5.4-1-.3-.6-.8-1-1.1-1zm158.6 0c-.5 0-1 .5-1 1.1 0 .5.5.7 1 .4.6-.3 1-.8 1-1.1 0-.2-.4-.4-1-.4zm-120.344.044c-.453.033-.675.412-.456 1.156.3.7 1.3 1.5 2.4 1.7 1.6.3 1.7.1.5-1.3-.9-1.069-1.863-1.599-2.444-1.556zm37.344.956c-.5 0-1 .5-1 1.1 0 .5.5.7 1 .4.6-.3 1-.8 1-1.1 0-.2-.4-.4-1-.4zm3.9 0c-.5 0-.7.4-.4 1 .3.5.8 1 1.1 1 .2 0 .4-.5.4-1 0-.6-.5-1-1.1-1zm21.1 0c-.5 0-1 .5-1 1.1 0 .5.5.7 1 .4.6-.3 1-.8 1-1.1 0-.2-.4-.4-1-.4zm5.6 0c-.3 0-.8.4-1.1 1-.3.5-.1 1 .4 1 .6 0 1.1-.5 1.1-1 0-.6-.2-1-.4-1zm11.062.125c-.537.05-.862.375-1.262.975-1 1.7 1.7 2.9 3.8 1.6 1.7-1.1 1.7-1.2 0-1.9-1.25-.5-2-.725-2.538-.675zm-53.03.26c-.351-.01-.632.29-.632.815.1 2.1 2.7 5.1 3.5 3.9.3-.6-.1-1.4-.9-1.7-.9-.3-1.4-1-1.1-1.4.3-.5.1-1.1-.5-1.5a.756.756 0 0 0-.368-.116zm69.605.765c-.462-.05-1.387.3-2.937 1.05-2.6 1.3-3 2.5-.8 2.5.8 0 1.5-.4 1.5-.9s.4-.7.9-.4c.5.3 1.1-.1 1.5-.9.3-.85.3-1.3-.163-1.35zm-10.3.9c-.587-.05-.937.4-.937 1.35 0 .8-1.1 1.7-2.4 2-2.6.6-4.1 5.7-2.2 7.6.7.7.6 1-.3 1-.7 0-1.1.6-.8 1.4.6 1.6-2.4 1.7-3.5.1-1.2-1.6-.9-2.8.6-2.2 1 .4 1.3.1.9-.9-.8-2.2-2.6-1.1-3.5 2.2-.6 2.2-.4 3.2.9 4.1 1.6 1.2 1.6 1.3 0 1.3-.9 0-2.1-.8-2.6-1.8-2.7-4.5-4-5.5-5.5-4.3-1.1.9-1.7.8-3-.4-.9-.9-1.6-2.1-1.6-2.6s-.4-.9-1-.9c-.5 0-.7 1.3-.4 2.9.5 2.5.3 3-1.7 3.4-1.3.3-.6.4 1.6.4 2.8-.2 3.9.2 3.7 1.1-.1.8.2 1.1.7.8.5-.4 1.3-.1 1.6.4.5.8 1.3.6 2.6-.6 1.6-1.4 1.9-1.5 1.9-.2 0 .8.9 2.5 2 3.8 1.6 1.8 1.7 2.5.8 3.2-.7.4-.9.8-.4.8s.3.6-.3 1.4c-1.2 1.4-.6 2.1 2.9 4.1 1.2.7 1.3.6.3-.7-1.1-1.3-.9-1.5 2-1.4 2.4.1 3.1.5 2.9 1.7-.1.9.4 1.9 1.3 2.2.8.4 1.2 1.3.9 2.2-.4.8.1 1.7 1 2.1.9.3 1.6 1.7 1.6 3 0 1.6.6 2.4 1.7 2.4 1.3 0 1.4-.3.6-1.1-1.4-1.4-.5-4.2.9-3.3.6.4 1.4 0 1.9-.7.8-1.2 1.1-1.2 2 .1.9 1.3 1 1.3.6-.1-.5-1.5 1.8-4.3 3.8-4.6.5-.1 1.1-.7 1.3-1.3.3-.7-.4-1-1.6-.8-1.2.2-2.1-.2-2.2-.7-.1-1.5 4-1.8 4.4-.3.3.7.7 3.4 1.1 5.9.6 4.5.7 4.6 2.9 3.6 1.3-.6 2.1-1.7 1.9-2.4-.3-.7 0-1.3.6-1.3s1.1-.7 1.1-1.6c0-1.4-.3-1.4-1.5-.4-.8.7-1.5 1.9-1.5 2.7 0 .8-.4 1.2-.9.8-.6-.3-.4-1.6.4-3.1 1.1-2.3 1-2.8-1-5-1.2-1.3-3-2.4-3.9-2.4-.9 0-1.5-.5-1.3-1.2.1-.7-.8-1.7-2-2.2-1.5-.7-2.1-1.7-1.9-3.6.2-1.4.1-1.7-.1-.8-.2 1-.9 1.8-1.4 1.8-.5 0-.9.5-.9 1.1 0 .6-.7 1.7-1.6 2.6-1.1 1.2-1.8 1.3-2.7.4-.8-.8-.7-1.1.5-1.1 1.3 0 2.8-1.9 2.8-3.4 0-.6-3.6.2-6.3 1.3-3.6 1.4-3.5 1.4-3.3-.7 0-1-.6-1.6-1.6-1.6-1 .1-1.8-.2-1.8-.7 0-.5.9-.9 2-.9s2-.4 2-.9.9-.7 2.1-.4c1.6.4 1.7.8.7 1.4-1 .7-.9.9.5.9.9 0 1.7-.4 1.7-.8 0-.5 1.4-.6 3.1-.4 2.3.3 3 .1 2.4-.7-.4-.7-1.3-1-2.1-.7-.8.3-1.4.1-1.4-.4 0-.6.5-1 1-1 .6 0 1-.5 1-1 0-.6-.9-1-2-1s-2-.4-2-1c0-.5.8-.6 1.7-.3 1.2.5 1.5.2 1-1-.3-.9-.2-1.7.4-1.7.5 0 1.2.6 1.5 1.4.5 1.2.9 1.1 2.5-.5 2.3-2.3 2.3-2.5.5-3.2-1-.4-1.3-.1-.9.9.3.8-.1 1.4-1.1 1.4-.9 0-1.6-.5-1.6-1 0-2.1-.2-2.5-1.7-4.3-.95-1.05-1.775-1.6-2.363-1.65zm-20.719.14c-.584.037-1.606.21-3.218.51-3.8.7-4.6 2.1-1.1 1.9 1.7-.1 3.6-.7 4.3-1.4.75-.75.992-1.07.018-1.01zm77.716.329c-.74-.057-.834.281-.534 1.181.4.9.1 2.1-.4 2.9-.9.9-.6 1.6 1.1 2.4 1.9 1.1 2.1 1 1.6-.5-.4-.9-.3-2.5.3-3.5.8-1.4.5-1.9-1.1-2.3-.4-.1-.72-.162-.966-.181zm-44.934.481c-.5 0-1 .7-1 1.6 0 .8.5 1.2 1 .9.6-.3 1-1 1-1.6 0-.5-.4-.9-1-.9zm-27.908.42c-.178.028-.342.155-.492.38-.3.6-.1 1.4.5 1.7 1.4.9 2 .2 1-1.4-.375-.5-.711-.727-1.008-.68zm-30.505.042c-.362-.012-.587.038-.587.138 0 .2.9.8 2 1.4 1.1.6 2 .7 2 .2 0-.6-.9-1.2-2-1.5a6.487 6.487 0 0 0-1.413-.238zm76.65.126c-.362-.013-.687.262-1.137.812-1.3 1.5-.5 2.6 2.1 2.6 2.2 0 2.3-.7.4-2.5-.6-.6-1-.9-1.363-.912zM86.652 165c-.5 0-1 .4-1 1 0 .5.5 1 1 1 .6 0 1-.5 1-1 0-.6-.4-1-1-1zm-13.95.025c-.525 0-1.15.325-1.55.975-.4.6-1.6.8-2.8.4-2.1-.6-2.1-.5-.6 1.1 1.3 1.4 2.1 1.5 3.8.6 1.1-.7 2.1-1.6 2.1-2.1 0-.65-.425-.975-.95-.975zm103.45.01c-.558.001-.3.54.7 1.665.9 1 1.8 2.5 2.1 3.3.3.9.6.4.6-1.1.1-1.6-.6-2.9-1.5-3.3-.938-.375-1.566-.567-1.9-.566zm-137.825.427c-.4.03-.675.226-.675.538 0 .6.7 1 1.5 1s1.5-.2 1.5-.4-.7-.6-1.5-1a1.98 1.98 0 0 0-.825-.138zm78.925.538c-.3 0-.8.4-1.1 1-.3.5-.1 1 .4 1 .6 0 1.1-.5 1.1-1 0-.6-.2-1-.4-1zm123.4 0c-.5 0-1 .4-1 1 0 .5.5 1 1 1 .6 0 1-.5 1-1 0-.6-.4-1-1-1zm-35.188.088c-.162-.088-.762.212-1.812.912-.8.5-1.2 1.2-.9 1.5.4.3 1.2-.1 1.9-1 .7-.85.975-1.325.812-1.412zm-84.222.307c-.365.08-.59.68-.59 1.505 0 2.5.6 2.7 1.3.6.4-.8.2-1.7-.3-2-.15-.1-.288-.131-.41-.105zm46.01.605c-.9 0-1.6.4-1.6 1 0 .5.4 1 .9 1 .6 0 1.3-.5 1.6-1 .3-.6-.1-1-.9-1zm63.9 1c-.8 0-1.5.4-1.5 1 0 .5.7 1 1.5 1s1.5.5 1.5 1.1c0 .6.6.9 1.3.6.6-.2 2 .2 3 1.1.9.8 2 1.2 2.4.8 1-1-3-4.2-4.9-3.8-1 .2-1.8-.1-1.8-.7s-.7-1.1-1.5-1.1zm-16.225.075c-.175 0-.375.275-.675.825-.4.7-.5 1.5-.2 1.8.9.9 1.9-.4 1.4-1.8-.2-.55-.35-.825-.525-.825zm-67.994.247c-.15.019-.244.178-.281.478 0 .7.7 2 1.5 2.8 1.9 2 2 .4 0-2.2-.563-.75-.97-1.11-1.22-1.078zm-20.381.678c-.5 0-.7.4-.4 1 .3.5.8 1 1.1 1 .2 0 .4-.5.4-1 0-.6-.5-1-1.1-1zm49.4.038c-.45-.038-1.1.212-1.9.762-1.9 1.2-2.7 5.2-1.1 5.2 1 0 1.3-.7 1-2-.4-1.4 0-2 1.1-2 .9 0 1.6-.5 1.6-1 0-.6-.25-.925-.7-.962zm8.853.053c1.058.038 2.097.497 2.447 1.109.4.7.3.8-.4.4-1.6-1-1.6 2.6 0 4.2.9.9.9 1.2 0 1.2-.7 0-1.2-.5-1.2-1.1 0-.5-.5-.7-1-.4-.7.4-.9-.3-.6-1.9.2-1.4-.1-2.7-.7-3-.7-.2-.2-.5 1-.5.15-.012.302-.015.453-.01zM50.489 170c-.487.05-.937.35-1.237.9-.3.5.1 1.1.9 1.5 1.5.6 2.9-.7 1.8-1.8-.45-.45-.975-.65-1.463-.6zm55.163 0c-.7 0-.7.6 0 1.9 1.4 2.6 1.3 3.8-.2 2.3-1.4-1.4-2.8-1.6-2.8-.3 0 1.4 3.2 2.3 4.4 1.1 1.4-1.4 2.9-1.2 2.3.3-.3.8-.1 2 .4 2.8.7 1.1.9 1.1.9-.4 0-.9.5-1.7 1-1.7 2.3 0 .7-2.1-2-2.7-1.6-.3-3-1.2-3-1.9 0-.8-.5-1.4-1-1.4zm35.4 0c-.2 0-.4.4-.4 1 0 .5.5 1 1.1 1 .5 0 .7-.5.4-1-.3-.6-.8-1-1.1-1zm77.6 0c-.5 0-1 .6-1 1.2 0 .7-.5 2-1 2.8-.9 1.3-1.1 1.3-2 0-.6-1-1-1.1-1-.3 0 .7-.4 1.3-1 1.3-.5 0-1-.7-1-1.5 0-1.4-.3-1.3-2.5.1-2 1.3-2.8 1.4-3.9.5-1.1-.9-1.6-.9-2.3.2-.4.8-1.8 1.4-3 1.3-2.1-.1-3.3 1.8-1.3 2 .6.1 1.8.2 2.8.3 1.5.2 1.4.4-.5 1.8-2.6 1.8-3.1 5.3-.7 5.3.8 0 1.2.4.9 1-.9 1.4 1.9 1.2 3.3-.2.9-.9 1.2-.9 1.2 0 0 .6.7.9 1.5.6 1.1-.5 1.3-1 .5-1.9-.8-.9-.3-1.2 1.7-1.2 1.6 0 4.5-.3 6.6-.7 3.6-.6 3.7-.5 3.7 2.4 0 2-.4 2.9-1.1 2.5-.6-.4-.8-1.2-.6-1.9.3-.7-.5-1.2-1.9-1.1-1.3 0-2.4.4-2.3 1 0 .5.8.9 1.7.7 1.5-.2 1.5-.1.2.7-1.3.9-1.2 1.2.5 2.5 1.1.8 2.3 1.2 2.7 1 .5-.3.8 0 .8.5 0 1.4-.1 1.4-5.6 0-2.6-.7-4.4-1.7-4.4-2.6 0-1.1-.4-1.1-2-.3-1.7.9-1.8 1.4-.8 3 .7 1.1 1.5 1.5 1.8 1 .3-.5 2.3-.3 4.7.5 2.3.8 4.9 1.2 5.8.9.8-.3 1.5-.1 1.5.5s.5 1.1 1 1.1c1.4 0 1.3-3.3-.2-4.8-.9-.9-.9-1.2.1-1.2.8 0 1.1-.6.7-1.5-.3-.8-.1-1.5.4-1.5.6 0 1 .4 1 1 0 .5.7 1 1.5 1 2.7 0 1.6-2.7-2.2-5.3-2.7-1.8-4.6-2.4-6.5-2-2 .4-3 .1-3.4-1.1-1-2.6.4-3.1 2.8-1 1.2 1 1.8 1.3 1.4.6-.5-.8-.1-1.2 1.1-1.2 1 0 3.1-1.1 4.7-2.5 2.2-1.9 3.2-2.2 3.7-1.3.4.7 1.1.9 1.6.5 1.2-1.3-2-2.7-4.7-2-1.4.3-3 1.2-3.6 1.9-1 1.3-1.2 1.2-1.8-.1-.3-.8-.1-1.5.4-1.5.6 0 1-.7 1-1.5s-.4-1.5-1-1.5zm-49.877 1.094a4.03 4.03 0 0 0-.723.006c-1.1 0-1.4.3-.6.6.7.3 1.6.2 1.9-.1.3-.225.037-.45-.577-.506zm-51.823.244a.954.954 0 0 0-.6.362c-.4.3-.7 1.1-.7 1.7 0 .6.5.5 1.2-.2.6-.6.9-1.4.7-1.7-.15-.15-.375-.2-.6-.162zm-31.388.056a5.929 5.929 0 0 0-.612.006c-1.4.1-2.3.7-2.3 1.8 0 .9.5 2 1 2.3.6.3 1 .1 1-.6s.6-.5 1.4.6c1.2 1.7 1.3 1.6 1.2-1.2-.088-2.188-.404-2.843-1.688-2.906zm11.458.637c-.237.058-.533.344-.87.869-.3.5-.1 1.2.5 1.6.5.3 1-.1 1-.9 0-1.125-.235-1.664-.63-1.569zm35.753.063a4.03 4.03 0 0 0-.723.006c-1.1 0-1.4.3-.6.6.7.3 1.6.2 1.9-.1.3-.225.037-.45-.577-.506zM53.652 174c-.5 0-1 .7-1 1.6 0 .8.5 1.2 1 .9.6-.3 1-1 1-1.6 0-.5-.4-.9-1-.9zm86.4 0c-.2 0-.4.4-.4 1 0 .5.5 1 1.1 1 .5 0 .7-.5.4-1-.3-.6-.8-1-1.1-1zm-18.1.125c-.5-.05-1.3.275-2.5.975-2.6 1.5-2.2 2.7.7 2.1 1.4-.2 2.5-1.1 2.5-1.8 0-.8-.2-1.225-.7-1.275zm32.287.337c-.362-.012-.587.038-.587.138 0 .2.9.8 2 1.4 1.1.6 2 .7 2 .2 0-.6-.9-1.2-2-1.5a6.487 6.487 0 0 0-1.413-.238zm-20.687.538c-.5 0-.7.4-.4 1 .3.5.8 1 1.1 1 .2 0 .4-.5.4-1 0-.6-.5-1-1.1-1zm-32.844.2c-.446.026-1.169.2-2.256.5-1.9.5-2.4 1.8-.9 2.7.5.4 1.1 0 1.4-.6.2-.7.8-.1 1.2 1.4.4 1.6 1.1 2.8 1.6 2.8 1.3 0 1.1-2.7-.2-3.5-.6-.4-.8-1.3-.5-2.1.375-.875.399-1.243-.344-1.2zm-55.156.8c-.5 0-.7.4-.4 1 .3.5.8 1 1.1 1 .2 0 .4-.5.4-1 0-.6-.5-1-1.1-1zm31.6 0c-.8 0-1.5.7-1.5 1.5s.7 1.5 1.5 1.5 1.5-.7 1.5-1.5-.7-1.5-1.5-1.5zm50.5 0c-.5 0-1 .5-1 1.1 0 .6-.7.9-1.5.5-.8-.3-1.5-.1-1.5.4 0 1.1 1.1 1.3 3.4.4 1.8-.7 2.2-2.4.6-2.4zm18.6 0c-.3 0-.8.4-1.1 1-.3.5-.1 1 .4 1 .6 0 1.1-.5 1.1-1 0-.6-.2-1-.4-1zm23.587.012c.463.038.813.338.813.888 0 .5-.7 1.1-1.5 1.5-1.5.5-2-.5-.8-1.7.45-.5 1.025-.725 1.487-.688zm-54.9.076c-.487-.088-1.237.212-2.287.912-1.3.8-1.3 1 .2 1 1.1 0 1.8 1.2 2.3 4 .4 2.5 1.2 4 2.1 4 .8 0 1.4-.5 1.4-1 0-.6-.4-1-1-1-.5 0-1-.7-1-1.6 0-1 .6-1.4 1.5-1 .9.3 1.5 0 1.5-.9 0-1.4-1.2-1.9-3.2-1.6-.5 0-.8-.6-.8-1.4 0-.85-.225-1.325-.713-1.412zm-52.956.014c-.202.034-.431.31-.731.798-.3.5.1 1.4.8 2 1.2 1 1.3.8.9-.8-.375-1.438-.633-2.055-.97-1.998zm168.856.045c-.083.016-.15.128-.187.353-.1.5-.2 1.3-.1 1.7 0 .5-.6.8-1.4.8-.8 0-1.5-.5-1.5-1 0-.6-1.2-1-2.7-1-2.8 0-2.7 0 .7 1.9 2.9 1.6 3.7 1.7 4.9.6.7-.7 1.1-1.9.8-2.7-.188-.437-.374-.68-.513-.653zm-22.775.037a8.39 8.39 0 0 1 .588.016c1.7.1 3 .8 3 1.5s-.5 1.3-1.1 1.3c-.5 0-.7.5-.3 1.2.4.7.3.8-.4.4s-1.2-.4-1.2.1c0 .4-1.1 1.3-2.5 2-1.9.8-2.7.8-3.2 0-.3-.7-.3-.9.1-.5 1 .8 5.7-3.2 5-4.4-.3-.4-1-.6-1.5-.3-.5.4-.9.1-.9-.5 0-.438 1.072-.8 2.412-.816zM93.152 177c-.8 0-1.5.1-1.6.2-.9 3-.6 3.6 1.2 2.5 2.3-1.4 2.5-2.7.4-2.7zm-21.758.006c-.417.048-.742.532-.742 1.494 0 1-1 1.5-2.7 1.5-1.8 0-2.4.3-1.5.8.7.5 2.5.7 4.1.4 2.2-.3 2.8-.8 2.4-2.3-.338-1.294-1.023-1.955-1.558-1.894zm13.15.44c-.642.048-.792.404-.492 1.154.3.8-.1 1.4-.9 1.4-2.1 0-1.9.9.7 3l2.3 1.8-2.8-.5c-1.5-.3-2.7-.1-2.7.4 0 2 2.6 6.3 3.8 6.3.7 0 1.5.7 1.8 1.5.4.8 1.2 1.5 2 1.5s1.4-.7 1.4-1.5.5-1.5 1.1-1.5c.5 0 .7-.5.4-1-.5-.8-1.1-.8-2 0-1 .8-1.4.5-1.7-1.5-.6-3.1.1-3.9 2.1-2.1 1.9 1.7 7.1 1 7.1-1.1 0-1.1-.4-1.1-2.2-.2-1.8 1-2.4.8-3.9-1-.9-1.1-2.2-2.1-2.8-2.1-.6 0-1.1-.5-1.1-1 0-.6.7-1 1.5-1 1.8 0 2-2 .3-2.1-.7 0-2.1-.2-3.1-.4a3.722 3.722 0 0 0-.808-.053zm156.57.329c.913-.025 1.538.575 1.538 1.825 0 .8.4 1.4.9 1.4 1.2 0 .2 3.8-1.2 4.7-.6.4-.8-.3-.3-2 .6-2.5.5-2.6-2.9-2l-3.6.6 2.3-2.6c1.15-1.25 2.35-1.9 3.262-1.925zM106.252 178c-.8 0-1.6.7-2 1.5-.4 1.3-.2 1.4 1.4.5 2.3-1.3 2.6-2 .6-2zm31.28.06c-.393-.004-.78.215-1.18.64-.4.3-.2 1.2.5 2 .8 1.1.7 1.7-.8 2.8-1 .8-1.4 1.5-.7 1.5.6 0 1.5-.5 1.8-1 .9-1.5 3.5-1.2 3.5.4 0 .8.4 1.8 1 2.1.7.4.7-.3 0-2-1.725-4.425-2.944-6.431-4.12-6.44zm109.682.04c.513 0 1.588.3 2.938.9 1.3.6 1.5.9.5.9-.8 0-2.2-.4-3-.9-.9-.6-.95-.9-.438-.9zm-92.962.9c-.9 0-1.6.4-1.6 1 0 .5.4 1 .9 1 .6 0 1.3-.5 1.6-1 .3-.6-.1-1-.9-1zm-107.98.034c-.428.013-.683.378-.42 1.166.2.6 1 1.4 1.6 1.6.7.2 1-.2.6-1.2-.394-1.013-1.23-1.581-1.78-1.566zm30.962.824c-.626-.033-1.282.217-1.882.842-1.2 1.1-.8 2.3.8 2.3 1.8 0 2 1.7.3 2.3-1 .4-1 .7 0 1.8 1.7 1.8 1.5 3.2-.4 2.5-.9-.4-2.3-.1-3 .5-1.9 1.5-1.8 4.9.1 4.9.8 0 1.5.5 1.5 1 0 2.3-3.1 6.9-5 7.5-3.1 1-2.6 3.7.5 2.9 1.8-.4 2.5-.2 2.5.9 0 1.8 6.2 3 7.2 1.3.4-.6.8-2.1.8-3.4 0-2.1-.9-2.6-3.7-2.3-.7.1-1.3-.6-1.3-1.5 0-1 .5-1.4 1.5-1.1.8.4 1.7.1 2.1-.5.5-.7 1-.4 1.5 1 .6 1.5 1.6 2 3.8 2 2.7-.1 2.8-.3 1.9-2.4-.6-1.3-1.6-2-2.4-1.7-.9.3-1.4-.2-1.4-1.6 0-2.6 1.2-2.7 3.5-.1 1 1.1 1.5 2 1 2-.4 0-.2.7.5 1.5.6.8 1.5 1.3 1.8 1.2.4-.1.7.2.7.8 0 1-2.4 1.6-6.4 1.5-2.4 0-2.4 0-.9 5 .3.8.3 1.2.1.7-.7-1-2.3.2-2.3 1.7 0 1.7 5.4 1.4 7.5-.4.9-.8 1.4-2.2 1.2-3.1-.6-2.1 2.2-3.4 5.3-2.4 1.1.4 2 .2 2-.4 0-.6-.6-1.1-1.3-1.1-.7 0-2-.9-3-2-1.6-1.9-1.6-2 1.6-2 1.8 0 3.7-.4 4.3-.9.5-.5 1.8-1.1 2.9-1.4 1.1-.3.4-.4-1.5-.2s-4.9.8-6.6 1.3c-3.5 1.1-5.6 0-4.7-2.5.3-.7.2-1.3-.3-1.2-2.2.4-3.4-.2-3.4-1.6 0-2.5-1.4-1.7-2.8 1.5-1 2.2-2 3-4 3h-2.7l3.2-2.3c3.4-2.3 4.5-4.4 1.8-3.4-2.1.9-2.9-1-.9-2.1 1.1-.6 1.3-1.2.6-1.6-.8-.5-.8-1.5-.1-3.3.975-2.7-.638-5.344-2.518-5.442zm48.907.534c-.293.014-.49.233-.49.608 0 .8-.9 1-2.5.6-2.9-.7-3.6 1.8-.8 2.8 2 .8 6.1-2.8 4.4-3.8-.224-.15-.435-.216-.61-.208zM95.25 181c-.8 0-1.8.4-2.1 1-.3.5.1 1 .9 1s1.8-.5 2.1-1c.3-.6-.1-1-.9-1zm130.4 0c-.5 0-1 .4-1 1 0 .5.5 1 1 1 .6 0 1-.5 1-1 0-.6-.4-1-1-1zm22.5 0c.8 0 1.5.4 1.5 1 0 .5-.4 1-.9 1s-1.2 1-1.4 2.2c-.3 1.7-.5 1.4-.6-1-.1-2.2.3-3.2 1.4-3.2zm-84.5 1.025c-.524-.05-.8.425-.4 1.475.4 1 0 1.5-1.4 1.5-1.2 0-2.4.4-2.7 1-.3.5-.1 1 .4 1 .6 0 1.1.4 1.1 1 0 .5-.7.7-1.5.4-1-.4-1.5 0-1.5 1 0 1.1.7 1.6 1.8 1.4 1.2-.2 1.6.3 1.5 2-.3 2-.1 2.1 1.7 1 1.1-.7 2-2 2.1-2.8 0-.9.2-1.1.5-.3.3.7 0 2.1-.5 3.2-.8 1.4-.8 2.2.1 2.7.6.4 1.4.2 1.6-.4.2-.7.9-1.2 1.6-1.2.7 0 2-.6 3-1.3 2.1-1.5 1.3-6.7-1-6.7-.8 0-1.4-.4-1.4-1s.9-.6 2.6 0c2.2.9 2.5.7 2.2-.7-.4-2.2-6.8-3.2-6.8-1.1 0 .8-.4.6-1.1-.5-.6-1.05-1.374-1.625-1.9-1.675zm-5.876.069a4.03 4.03 0 0 0-.723.006c-1.1 0-1.4.3-.6.6.7.3 1.6.2 1.9-.1.3-.225.037-.45-.577-.506zm-49.558.653c-.31-.066-.815.403-1.265 1.153-.8 1.3-.9 2.2-.3 2.6 1.1.7 2.4-1.8 1.8-3.5-.05-.15-.132-.231-.235-.253zM68.552 183c-.5 0-.9.4-.9 1 0 .5.7 1 1.6 1 .8 0 1.2-.5.9-1-.3-.6-1-1-1.6-1zm111 0c.6 0 1.1.4 1.1 1 0 .5 1.4 1 3 1 2.1 0 3 .5 3 1.6 0 1.3-.7 1.5-3 1-1.9-.3-2.9-.2-2.5.4.8 1.3-1.5 1.3-3.5 0-1.3-.8-1.2-1 .3-1 1.4 0 1.7-.5 1.2-2-.4-1.1-.2-2 .4-2zm49.73.031c-.396-.095-.63.444-.63 1.569 0 .8.5 1.2 1 .9.6-.4.8-1.1.5-1.6-.338-.525-.633-.811-.87-.869zm-171.13.069l-3.2.1c-1.8.1-3.3.4-3.3.9 0 .4-.3 1.4-.6 2.3-.3.9-.1 1.6.6 1.6.6 0 .8-.5.5-1-.4-.6.9-1.7 2.7-2.4l3.3-1.5zm7.6.9c-.6 0-1.3.4-1.6 1-.3.5.1 1 .9 1 .9 0 1.6-.5 1.6-1 0-.6-.4-1-.9-1zm35.5 0c-1.25 0-2.6.5-3 1.5-.3.8-.1 1.5.4 1.5.6 0 1 .7 1 1.5 0 1.7 1.6 2 2.5.5.3-.6.1-1-.4-1-.6 0-1.1-.5-1.1-1.1 0-.6.7-.9 1.5-.5.9.3 1.5 0 1.5-.9 0-1-1.15-1.5-2.4-1.5zm158.387.012c.063.038-.187.388-.687 1.088-.7.9-1 1.9-.6 2.2.3.4.1.7-.5.7-.7 0-1.2-.2-1.2-.4s-.2-1-.3-1.8c-.2-.7-.2-.9.1-.5.2.4 1.1.2 2-.5.75-.55 1.125-.825 1.187-.788zm-197.617.02c-.237.057-.533.343-.87.868-.3.5-.1 1.2.5 1.6.5.3 1-.1 1-.9 0-1.125-.235-1.664-.63-1.569zm-17.458.418c-3.087 0-6.262.25-6.612.75-.2.5.3.8 1.1.8.9 0 1.6.5 1.6 1.1 0 .8.4.8 1.5-.1.8-.6 1.9-.9 2.5-.5 1.3.8 6-.2 6-1.3 0-.5-3-.75-6.088-.75zm28.088.55c-.5 0-1 .7-1 1.6 0 .8.5 1.2 1 .9.6-.3 1-1 1-1.6 0-.5-.4-.9-1-.9zm172.6 0c.2 0 .4.4.4 1 0 .5-.5 1-1.1 1-.5 0-.7-.5-.4-1 .3-.6.8-1 1.1-1zm-115.6.2c-.8 0-2.1.2-2.7.5-.7.2-1.3 1.2-1.3 2.1.1 1.5.2 1.6 1.3.1.7-.9 1.9-1.8 2.7-2.2 1.3-.5 1.3-.5 0-.5zm119.718.142c.06.002.12.02.182.058.5.4.7 2.1.4 3.9-.3 1.7-1 3.8-1.5 4.4-.8 1-.6 1.3.8 1.3 1.5 0 1.6.2.5.9-.7.5-2.1.8-3 .6-.9-.1-1.9.5-2.3 1.4-.6 1.4-.7 1.3-.7-.2-.1-1-.5-1.5-1.1-1.2-.5.3-1 .1-1-.4 0-.6.5-1.1 1-1.1.6 0 1-.6.9-1.3-.1-.6.3-2.3 1-3.7l1.1-2.5-.4 2.5c-.3 1.4-.1 3.2.4 4 .8 1.2 1 .9 1-1.3 0-1.5.5-2.7 1-2.7.6 0 1-1.2 1-2.6 0-1.225.307-2.067.718-2.058zm-39.05.09c-.394-.034-.668.13-.668.568 0 1.1 3.1 4.2 3.6 3.7.3-.2.2-1.1-.2-2-.413-1.169-1.864-2.196-2.732-2.269zm-65.236.438c-.257.021-.432.305-.432.93 0 .5.6 1.7 1.4 2.7 1.3 1.8 1.4 1.8.9-.8-.344-1.65-1.302-2.875-1.868-2.83zm47.768.218c.125.012.4.212.8.612.7.6 1.9.9 2.8.6 1-.4 1.3-.1 1 .8-.3.8-1.3 1.3-2.2 1.1-1-.2-1.6.3-1.5 1 .3 2.4-.1 3.8-1 3.8-.6 0-.6-1.2-.1-3.1.5-1.8.7-3.7.3-4.3-.2-.35-.225-.525-.1-.512zm45.512.012c-.262 0-.762.3-1.712.9-1.3.8-1.2 1 .3 1 .9 0 1.7-.5 1.7-1 0-.6-.025-.9-.288-.9zm-74.5.516c.83.003 2.281.559 4.588 1.684 1.3.6 2.2 1.9 2.1 3.1 0 2-.1 2-1.1-.1-1.1-2.3-4.1-3.8-5.6-2.9-.5.3-.9-.1-.9-.8 0-.656.267-.987.912-.984zm-41.212.584c-1.4 0-1.9.2-1.2.5.6.2 1.8.2 2.5 0 .6-.3.1-.5-1.3-.5zm-55.37.788c-.966-.031-1.88.424-2.33 1.512-.3.9-.3 1.9.1 2.2.3.4.6.1.6-.5 0-.7.7-1.2 1.5-1.2 1.9 0 1.9.7 0 2.7-.835.765-1.126 1.385-.965 1.994l2.265-.394c1.5-.3 2.2-1.2 2.2-2.8 0-2.062-1.758-3.462-3.37-3.512zm-1.095 6.706l-.035.006.04.014-.005-.02zm.005.02c.074.26.222.519.46.786.6.7.8 2.4.5 3.8-.4 1.5-.2 2.8.5 3.2.9.5 1 .1.5-1.5-.6-1.9-.4-2.2.9-1.7 1.1.5 1.6.1 1.6-1.2 0-1-1-2.2-2.2-2.6l-2.26-.786zm46.46-6.714c-.5 0-1 .4-1 1 0 .5.5 1 1 1 .6 0 1-.5 1-1 0-.6-.4-1-1-1zm41.293.63c-.212.04-.375.482-.593 1.27-.3 1.1.1 2.6.9 3.2 1 .8 1.1 1.5.4 2.4-.7.8-.7 1.5-.2 1.9 1.7 1 2.2-4.1.8-6.8-.675-1.406-1.033-2.022-1.307-1.97zm35.53.034c1.758.024 2.377.511 1.477 1.336-1.4 1.4-5.6 1.6-6 .3-.2-.7.8-1.3 2.4-1.5.825-.1 1.537-.144 2.123-.136zM94.552 189c-1.1 0-1.7.4-1.4 1 .3.5 1.3 1 2.1 1s1.4-.5 1.4-1c0-.6-.9-1-2.1-1zm10 0c-.5 0-.8.5-.6 1.2.2 1.4-6.3 4.9-8 4.3-.7-.2-1.3-.1-1.3.3 0 .5 2.2.9 4.8.9 4.1.1 4.9-.3 6-2.5 1.2-2.5.8-4.2-.9-4.2zm13.223.094a4.03 4.03 0 0 0-.723.006c-1.1 0-1.4.3-.6.6.7.3 1.6.2 1.9-.1.3-.225.037-.45-.577-.506zM61.052 190c-.2 0-.4.7-.4 1.5s.4 1.5 1 1.5c.5 0 .7-.7.4-1.5-.4-.8-.8-1.5-1-1.5zm67.373.378c-.257-.022-.46.103-.573.422-.2.7-1.1.8-2.7.2-1.6-.6-2.7-.6-3.1.1-.3.6-1.2.8-2 .5-.9-.3-1.8.2-2.1 1.2-.9 2.2-3.4 4.7-5.4 5.5-1.2.4-1.5 1.3-1.1 3.3.3 1.9.2 2.5-.7 1.9-.7-.4-1-1.3-.7-2 .3-.8-.2-1.9-1-2.5-1.1-1-1.4-.9-1.4.8 0 1.1.7 2.5 1.5 3.2.8.7 1.5 1.8 1.5 2.4 0 1.2-5.4 4.6-7.4 4.6-.7 0-1.2 1-1.1 2.2.1 1.3.8 2.3 1.6 2.3.9 0 1.5 1.3 1.7 3.2.2 1.8.8 3.3 1.4 3.3.5 0 .7-.7.4-1.6-.3-.8-.2-1.2.4-.9.6.3 1 .2 1-.4 0-.5-.4-1.1-1-1.3-1.6-.5-1.7-7-.1-7.6.8-.3 1.1 0 .7.7-.5.7-.1.9 1 .4 1.3-.5 1.5-.2 1 1.5-.4 1.1-.2 2.3.5 2.8.8.5 1-.4.7-3.2-.3-2.7.2-5 1.8-8 1.2-2.3 2-4.5 1.7-4.8-.4-.3.6-.6 2-.6 1.5 0 2.7.4 2.7.9 0 1 5.7 2.6 7.9 2.2.7-.1 1 .2.6.9-.4.6-1.4 1-2.3.9-1-.1-2.4-.1-3.2 0-1.3.1-1.3.3 0 1 .8.6 1.8.7 2.4.4.5-.4.7.1.3 1-.3 1-.2 1.7.2 1.7 2 0-.3 4-2.7 4.8-2.1.7-1.4.9 3.5 1 5.5.2 6.1-.1 6.8-2.1.7-2.1.7-2.1 1.2-.2.8 3.2 4.3 4.8 4.3 2 0-.8-.9-2-2-2.7-1.1-.7-2-1.9-2-2.6 0-.7-.5-2.1-1.2-3.2-.7-1-.9-2.3-.5-2.7.5-.4 1.1-.3 1.5.3.4.7 1.5.8 2.7.3 1.8-.7 1.8-.8.1-.8-1.2-.1-1.6-.6-1.2-1.7.4-.9.1-2.3-.5-3.1-1-1.1-.8-1.5.9-2 2.3-.6 3.1-2.3 1.1-2.3-2.1 0-4.7 4-4.2 6.3.4 1.8.3 1.9-.6.7-.6-.8-1.1-2.5-1.1-3.7 0-1.95-2.113-4.824-3.227-4.922zm-18.05.09c-.492-.043-.998.182-1.223.632-1 1.5.3 2.5 1.6 1.2.7-.7.7-1.3.1-1.7a1.318 1.318 0 0 0-.477-.133zm4.187 1.53c-.372.027-.798.252-1.21.702-1.3 1.3-.7 3.2.8 2.7.8-.4 1.5-1.2 1.5-2 0-.938-.47-1.446-1.09-1.402zm35.09.002c-.5 0-1 .5-1 1.1 0 .5.5.7 1 .4.6-.3 1-.8 1-1.1 0-.2-.4-.4-1-.4zm106.9 0c.6 0 1.1.4 1.1 1 0 .5-.2 1-.4 1-.3 0-.8-.5-1.1-1-.3-.6-.1-1 .4-1zm-133.718.981c.592-.006.693.469-.182 1.519-1.7 2.1-.6 2.9 2 1.5s3.1-1.1 2.4 1.6c-.4 1.6-1.2 1.9-3.5 1.6-1.6-.2-2.9-1-2.9-1.8s-.6-1.1-1.7-.7c-1.6.5-1.5.3.2-1.5 1.35-1.406 2.922-2.21 3.682-2.219zm51.918.019c-.5 0-1.1.7-1.5 1.5-.3.8-1.7 1.5-3.1 1.5-2.3 0-2.5.3-1.9 2.2.4 1.3 1.4 2.8 2.3 3.5 1.3.9 1.8.8 2.4-1l.9-2.2.9 2.2c.5 1.4 1.7 2.3 2.9 2.3 1.1 0 2 .5 2 1.1 0 .5-.4.7-1 .4-.5-.3-1-.2-1 .3 0 .6.7 1.2 1.5 1.6 2.3.9 1.8-2.3-.7-4.9-4.4-4.5-5.3-5.8-4-6.3 1.4-.4 1.6-2.2.3-2.2zm50.9 0c-.6 0-1 .7-1 1.5s.2 1.5.4 1.5.6-.7 1-1.5c.3-.8.1-1.5-.4-1.5zm12 .3c1.8 0 2.9.5 2.7 1.1-.4 1.2-3.7.9-5-.3-.4-.4.6-.8 2.3-.8zm-5.49.06c.733.059 1.49 1.034 1.49 2.34 0 1.3-.3 1.3-1.5.3-.8-.7-1.2-1.6-.9-2.1.25-.406.577-.568.91-.54zm-154.8.142a.668.668 0 0 1 .39.098c.5.3.7 1 .4 1.5-1 1.5-2.5 1-1.9-.6.3-.6.712-.975 1.11-.998zm67.266.139c-1.083-.103-2.151.609-4.176 2.559l-3.3 3.1 3.8-2.1c2-1.2 4.4-1.9 5.2-1.6 2.2.9 1.8-.3-.4-1.6-.4-.2-.763-.325-1.124-.36zM59.052 194c-.2 0-.4.4-.4 1 0 .5.5 1 1.1 1 .5 0 .7-.5.4-1-.3-.6-.8-1-1.1-1zm152.7 0c-1.2 0-1.6 1.1-1.7 4.8-.1 3.6.1 4.2.7 2.4.6-1.4 1.7-2.2 3.3-2.2 1.4 0 2.8-.5 3.1-1 .3-.6-.1-1-1-1-.8 0-1.8-.7-2.1-1.5-.4-.8-1.4-1.5-2.3-1.5zm-30.977.094a4.03 4.03 0 0 0-.723.006c-1.1 0-1.4.3-.6.6.7.3 1.6.2 1.9-.1.3-.225.037-.45-.577-.506zm6.464.518c.363.038.863.238 1.413.588 1.1.7 2 1.6 2 2.1 0 .4-.9.3-2-.3s-2-1.5-2-2c0-.3.225-.425.587-.388zm-77.587.388c-.5 0-1 .5-1 1.1 0 .5.5.7 1 .4.6-.3 1-.8 1-1.1 0-.2-.4-.4-1-.4zm84.1 0c.5 0 .9.4.9 1 0 .5-.7 1-1.6 1-.8 0-1.2-.5-.9-1 .3-.6 1-1 1.6-1zm25.3 1c-.2 0-.4.4-.4 1 0 .5.5 1 1.1 1 .5 0 .7-.5.4-1-.3-.6-.8-1-1.1-1zm2.98.18c-.205.051-.355.595-.28 1.42 0 1.1.3 1.4.6.6.3-.7.2-1.6-.1-1.9-.075-.1-.15-.138-.22-.12zm-23.39.07c-.659.03-.878 1.112-.79 3.65.1 3.7.4 4.1 2.2 3.5 1.5-.4 1.7-.3.7.4-1.6 1.1-.6 3.2 1.5 3.2 2 0 1.7-2.7-.5-4.9-1.1-1.1-1.8-2.7-1.8-3.6.1-1-.4-2-1-2.2a.858.858 0 0 0-.31-.05zm-134.49.75c-.8 0-1.5.4-1.5 1 0 .5.7 1 1.5 1s1.5-.5 1.5-1c0-.6-.7-1-1.5-1zm116.1 0c-.8 0-1.6.7-2 1.5-.4 1 .1 1.5 1.4 1.5 1.1 0 2-.7 2-1.5s-.6-1.5-1.4-1.5zm-9.325.075c.175 0 .325.275.525.825.2.7.1 1.5-.2 1.8-1 1-1.9-.5-1-1.8.3-.55.5-.825.675-.825zm84.189.26c.16-.004.348.053.536.165.6.3 1 1.1 1 1.6 0 .6-.4.7-1 .4-.5-.3-1-1.1-1-1.6 0-.375.195-.555.464-.564zm-15.618.173a.527.527 0 0 1 .354.092c.6.4.6 1-.1 1.7-1.8 1.8-1.4 4.7.6 4 1.5-.6 1.6-.5.3.9-1.6 1.7-4 .7-3.6-1.5.525-2.975 1.586-5.107 2.446-5.192zm-75.346.492c-.8 0-1.5.4-1.5 1 0 .5.7.7 1.5.4.8-.4 1.5-.8 1.5-1 0-.2-.7-.4-1.5-.4zm70 0c1.2 0 1.5.5 1.1 1.6-.3.9-.6 2.2-.6 3 0 .8-1 1.4-2.2 1.4-2 0-2-.1-.4-1.9 1-1.1 1.5-2.5 1.1-3-.3-.6.1-1.1 1-1.1zm-86 .1c-.5 0-.2.6.8 1.3.9.7 1.7 1.8 1.7 2.5 0 .6.3 1.1.8 1.2.4 0 1.7.2 2.9.3 1.8.2 2 0 1.2-1.6-.6-1-1.4-1.6-1.8-1.4-.4.3-1.7-.1-2.7-.9-1-.8-2.3-1.4-2.9-1.4zm103.237.05c.238.075.263.5.263 1.35 0 .9-.6 1.2-1.6.8-1.3-.5-1.3-.7-.2-1.4.85-.55 1.3-.825 1.537-.75zm-189.923.278c-.431-.071-.814.51-.814 1.472 0 1.2.5 2.1 1 2.1.6 0 1-.6 1-1.4 0-.8-.4-1.8-1-2.1a.53.53 0 0 0-.186-.072zm162.998.66c-.162-.088-.762.212-1.812.912-.8.5-1.2 1.2-.9 1.5.4.3 1.2-.1 1.9-1 .7-.85.975-1.325.812-1.412zm-10.398.965c-.235-.004-.54.31-.914.947-.3.5-.1 1.8.4 2.7.9 1.6 1 1.4 1.1-1 0-1.75-.196-2.64-.586-2.647zM97.052 201c-.8 0-1.2.4-.9 1 .3.5 1 1 1.6 1 .5 0 .9-.5.9-1 0-.6-.7-1-1.6-1zm20.2 0c-.9 0-1.6.7-1.6 1.6 0 1.7 2.2 1.4 2.8-.4.2-.7-.3-1.2-1.2-1.2zm130.014.71a.929.929 0 0 1 .786.29c.6.6.3 1.7-1.2 3-1.6 1.5-2.6 1.8-4.4 1.1-2.1-.9-2.1-1-.3-1 1.1-.1 2.7-1 3.5-2.1.562-.812 1.124-1.235 1.614-1.29zm-99.214.29c-.2 0-.4.4-.4 1 0 .5.5 1 1.1 1 .5 0 .7-.5.4-1-.3-.6-.8-1-1.1-1zm13.312.1c-.262 0-.762.3-1.712.9-1.3.8-1.2 1 .3 1 .9 0 1.7-.5 1.7-1 0-.6-.025-.9-.288-.9zm-56.2.025c-.337-.05-.512.425-.912 1.375-.3.8-1.3 1.5-2.3 1.5-1.4 0-1.5.2-.4 1.2 1 1.1 1.5 1 2.5-.5 1.6-2.1 3-2.3 2.3-.3-.4 1-.1 1.3.9.9 1.3-.5 1.3-.8-.2-2.4-1.05-1.15-1.55-1.725-1.888-1.775zm99.902.19c-.264-.015-.54.11-.814.385-.3.3-.1 1.2.5 2 1.5 1.7-.8 4.6-2.9 3.8-.9-.3-1.9 0-2.3.7-.6.9-1.1.9-2.3-.1-.9-.8-1.6-1-1.6-.6s-.7.2-1.5-.5-1.5-.9-1.5-.4-.3 1.9-.6 3.1c-.4 1.4-.2 2.3.5 2.3.6 0 1.1-.8 1.1-1.7 0-1.2.3-1.4 1-.7 1.1 1.1.4 4.4-1 4.4-.4 0-2.4 1.6-4.4 3.5-4.4 4.1-6 4.4-5.4 1 .6-2.8.5-2.9-2.4-1.4-2 1.1-2 1.3-.4 2.4.9.7 1.5 1.9 1.4 2.6-.2.8.5 1.4 1.6 1.4s2.1.6 2.4 1.3c.5 1.5 3.2 1.6 3.2.1 0-.6.9-.8 2-.4 1.1.3 2 .2 2-.4 0-1.7-1.7-2.2-4.4-1.1-1.7.6-2.6.6-2.6 0 0-1.7 5-3.2 6.5-2 1.2 1 2.5.4 2.5-1.1 0-.5-.6-.6-1.4-.3-.8.3-1.7 0-2.2-.7-.5-.8-.2-1.1.8-.7.8.4 2.8-.2 4.3-1.2 1.6-1.1 3.2-1.7 3.7-1.4.4.3 1.6-.2 2.5-1.1 1.3-1.4 1.4-1.8.3-2.5-.8-.5-1.8-.6-2.2-.4-.4.3-.8 0-.8-.6 0-.7.8-.9 2-.5 1.4.5 2 .2 2-.9 0-.9.6-1.6 1.3-1.6.9 0 1.2-1 .9-3-.3-2.325-.994-3.638-1.786-3.684zM78.752 204c.5 0 .9.4.9 1 0 .5-.7 1-1.6 1-.8 0-1.2-.5-.9-1 .3-.6 1-1 1.6-1zm93.4 0c-.8 0-1.5.4-1.5 1 0 .5.7 1 1.5 1s1.5-.5 1.5-1c0-.6-.7-1-1.5-1zm-106.544.012c-.37-.02-.806.2-1.256.688-1.1 1-.8 2 .8 2.7 1 .4 1.5-.1 1.5-1.4 0-1.25-.429-1.953-1.044-1.988zm103.414.02c-.237.057-.533.343-.87.868-.3.5-.1 1.2.5 1.6.5.3 1-.1 1-.9 0-1.125-.235-1.664-.63-1.569zm50.717.006c-.512-.088-1.137.212-1.587.962-.4.6-1.1.8-1.6.5-.5-.4-.9-.2-.9.3s1.1.9 2.5.9c1.5 0 2.5-.5 2.5-1.3s-.4-1.275-.913-1.362zM98.652 205c-.5 0-1 .4-1 1 0 .5.5 1 1 1 .6 0 1-.5 1-1 0-.6-.4-1-1-1zm53.4 0c-.2 0-.4.4-.4 1 0 .5.5 1 1.1 1 .5 0 .7-.5.4-1-.3-.6-.8-1-1.1-1zm58.2 0c-.3 0-.8.4-1.1 1-.3.5-.1 1 .4 1 .6 0 1.1-.5 1.1-1 0-.6-.2-1-.4-1zm-91.7.1c-.2.1-1.4.4-2.6.6-1.3.2-2.3.9-2.3 1.4 0 1.4 2.6 1.1 4-.6.7-.8 1.1-1.4.9-1.4zm23.48.08c-.205.051-.355.595-.28 1.42 0 1.1.3 1.4.6.6.3-.7.2-1.6-.1-1.9-.075-.1-.15-.138-.22-.12zm2 0c-.205.051-.355.595-.28 1.42 0 1.1.3 1.4.6.6.3-.7.2-1.6-.1-1.9-.075-.1-.15-.138-.22-.12zm90.232.395a7.22 7.22 0 0 1 1.688.225c2 .5 2 .6.1 1.3-1.8.6-1.7.7.5 1.6 2 .8 2.1 1.1.8 1.6-.9.3-1.9.2-2.2-.4-.4-.5-1.1-.7-1.6-.4-1 .7-1.3-2.8-.3-3.7.15-.15.525-.225 1.012-.225zM45.652 206c-.5 0-1 .4-1 1 0 .5.5 1 1 1 .6 0 1-.5 1-1 0-.6-.4-1-1-1zm102.6 0c-.9 0-1.6.4-1.6 1 0 .5.4 1 .9 1 .6 0 1.3-.5 1.6-1 .3-.6-.1-1-.9-1zm12.4 0c-.5 0-1 .4-1 1 0 .5.5 1 1 1 .6 0 1-.5 1-1 0-.6-.4-1-1-1zm2.9 0c-.6 0-.7.4-.4 1 .3.5 1.1 1 1.6 1 .6 0 .7-.5.4-1-.3-.6-1.1-1-1.6-1zm25.1 0c-.5 0-1 .4-1 1 0 .5.5 1 1 1 .6 0 1-.5 1-1 0-.6-.4-1-1-1zm-60.641.09c.126.037.34.21.64.51.7.7.9 2.1.5 3.3-.3 1.2-1.1 2.1-1.6 2.1-1.2 0-1.1-1.7.2-2.5.6-.4.8-1.4.4-2.4-.312-.75-.35-1.07-.14-1.01zm-4.444.644c-.515-.084-1.115.366-1.715 1.266-1.6 2.6-1.5 3 .3 3 1.9 0 3.1-2.8 1.9-4a.886.886 0 0 0-.485-.266zm8.485.266c.9 0 1.6.4 1.6 1 0 .5-.4 1-.9 1-.6 0-1.3-.5-1.6-1-.3-.6.1-1 .9-1zm7.6 0c-.5 0-1 .7-1 1.5s.5 1.5 1 1.5c.6 0 1-.7 1-1.5s-.4-1.5-1-1.5zm-39.363.93c-1.144-.016-3.162.676-4.737 1.97l-2.4 1.9h3.8c2.1 0 3.6-.3 3.3-.6-.3-.3-.1-1.1.5-1.9.787-.919.427-1.358-.463-1.37zm53.105.098c-.417-.017-.742.41-.742 1.372 0 1.8 4.7 4.9 5.5 3.6.4-.6 1.1-.7 1.7-.4.7.4.8.2.4-.5s-1.6-.9-2.8-.6c-1.4.5-2.1.1-2.5-1.4-.338-1.294-1.023-2.05-1.558-2.072zm-83.28.02c-.188.055-.456.533-.762 1.452-.4.8-.3 1.6.1 1.9.4.3.9-.4.9-1.5.112-1.294.004-1.922-.238-1.852zm49.066.372c-.31.061-.703.53-.928 1.28-.6 1.4-.5 1.5.5.6.7-.7 1-1.5.7-1.8a.288.288 0 0 0-.272-.08zm64.112.16c-.401.042-.69.558-.94 1.62-.6 2.2-.6 2.2-2.8.2-2.2-1.9-2.2-1.9-1 .3 1.5 3 1.4 4.6-.4 3.9-.9-.3-1.5 0-1.5.9 0 1 .8 1.3 2.3 1.1 1.2-.3 2.5-.5 2.9-.5.4-.1.7-1.1.5-2.4-.1-1.7.3-2.2 2-2.2 1.3 0 2.8-.7 3.5-1.4 1.1-1.2 1-1.3-.6-.7-1 .3-2.4.2-3.1-.4-.338-.3-.619-.446-.86-.42zm-17.436.201c-.123.019-.204.294-.204.919 0 .6-.9.9-2 .6-1.1-.3-2 0-2 .6s1 1.1 2.3 1.2c3.2.1-4.9 3.8-8.4 3.9-1.8 0-2.8.6-3.2 2-.4 1.7-.2 1.8 1.4.9 3.5-1.8 6.3-.7 6.6 2.5.2 3.4.7 4 2.8 3.3 1.9-.8 2-2.7.1-2.7-1 0-1.4-.9-1.3-2.8.2-2.1.8-2.8 2.7-3 2.1-.2 2.5-.8 2.4-3.2-.075-2.025-.825-4.275-1.196-4.219zm54.346.231c-.775.013-1.65.338-2.05.988-.4.6-1.1.7-1.7.4-1.6-1 .2 3.9 2.1 5.6 1.2 1.1 1.3 1.1.3 0-1.8-2.1-1.5-3.8.8-4.5 1.1-.3 2-1.1 2-1.6 0-.6-.675-.9-1.45-.888zm26.15.088c.6 0 1.8.2 2.7.5.9.3 1.6 1.6 1.5 2.8v2.1l-1.1-2.2c-.6-1.2-1.8-2.4-2.7-2.6-.9-.3-1.1-.5-.4-.6zm-155.1.9c-.3 0-.8.4-1.1 1-.3.5-.1 1 .4 1 .6 0 1.1-.5 1.1-1 0-.6-.2-1-.4-1zm22.9 0c-.2 0-.7.4-1 1-.3.5.1 1 1 1s1.3-.5 1-1c-.3-.6-.8-1-1-1zm60.5 0c-.5 0-1 .7-1 1.5s.5 1.5 1 1.5c.6 0 1-.7 1-1.5s-.4-1.5-1-1.5zm-98.691.33c-.277.012-.31.782-.31 2.47 0 2.2.5 3.2 1.5 3.2 1.9 0 1.9-1.9 0-4.4-.612-.831-.975-1.28-1.19-1.27zm73.59.67c-.4 0-.6.7-.3 1.5.5 1.1-.1 1.5-2.2 1.5-2 0-2.5.3-1.7 1.1 1.4 1.4 7.5.7 8.1-1 .3-.8 0-1.1-.7-.7-.6.4-1.4 0-1.7-.8-.3-.9-1-1.6-1.5-1.6zm83.7 0c.2 0 .4.4.4 1 0 .5-.5 1-1.1 1-.5 0-.7-.5-.4-1 .3-.6.8-1 1.1-1zm-34.512.022c.547.027.913.528.913 1.578 0 .8-.4 1.3-.9 1-.5-.3-1.2.5-1.5 1.9-.4 1.4-1.3 2.5-2.1 2.5-1.3 0-1.2-.5.2-3.5 1.062-2.25 2.476-3.523 3.387-3.478zM67.052 212c-.2 0-.4.4-.4.9s-.7 1.7-1.6 2.6c-1.8 1.7-1.2 4.7.8 4 1.2-.5 2.3-7.5 1.2-7.5zm4.7 1c-1.2 0-2.1.4-2.1 1 0 .5.6 1 1.4 1 .8 0 1.8-.5 2.1-1 .3-.6-.3-1-1.4-1zm43.8 0c-.6 0-.7.4-.4 1 .3.5 1.1 1 1.6 1 .6 0 .7-.5.4-1-.3-.6-1.1-1-1.6-1zm-27.04.023c-.346-.017-.823.483-1.26 1.577-.8 2.2-.7 3.4.3 3.4.5 0 1.1-1.1 1.3-2.5.337-1.575.106-2.454-.34-2.477zm82.586.057c-.214.04-.646.489-1.346 1.32-.7.8-.8 1.7-.3 2 .6.3 1.2-.3 1.5-1.4.337-1.35.422-1.972.146-1.92zm-72.546.92c-.6 0-.7.4-.4 1 .3.5 1.1 1 1.6 1 .6 0 .7-.5.4-1-.3-.6-1.1-1-1.6-1zm126.2 0c-.5 0-1.4.7-2.1 1.5-1.9 2.3-.8 5 2.3 5.3 1.5.2 2.7-.1 2.7-.7 0-1-1.4-1.5-3.2-1.2-1.2.2-1-1.7.2-2.4 1.2-.8 1.3-2.5.1-2.5zm-91.025.267c-.638-.042-1.275.183-1.575.633-.3.6.2 1.1 1.2 1.1 1.1 0 2.4.5 3.1 1.2.9.9 1.2.8 1.2-.5 0-.9-.4-1.7-.9-1.7s-1.6-.3-2.4-.6a2.2 2.2 0 0 0-.625-.133zm52.104.133c-.123.057-.18.288-.18.7 0 2 1.6 4.3 2.3 3.2.3-.4-.1-1.7-.9-2.8-.624-.812-1.015-1.196-1.22-1.1zm-104.472.377c-.258-.14-.795.735-1.407 2.223-1.3 3.4-.4 4.5 3 3.5l2.2-.7-2.3 1.7c-1.2.9-2.7 1.3-3.2 1-.6-.3-1 .1-1 .9 0 1.7-5.1 5.6-7.4 5.6-.9 0-1.6.4-1.6 1 0 2 6.2.2 8.1-2.3.9-1.2 3.9.3 3.9 1.9 0 .8-.9 1.4-2 1.4-1.2 0-1.7.5-1.4 1.4.9 2.2 4.5 2.6 7.5.9 3-1.8 2.9-3.8-.2-2.8-1.3.4-1.9.2-1.9-.9 0-.8.8-1.7 1.8-1.9 1.5-.4 1.5-.5.1-.6-2.9-.2-3-2.9-.2-4.3 3-1.5 4.5-4.2 1.7-3.1-1.2.4-1.5.3-1-.5.4-.7.2-1.2-.3-1.2-.6 0-1.1-.7-1.1-1.6 0-1-.6-1.4-1.4-1.1-.8.3-1.6.1-1.8-.4-.025-.062-.056-.104-.093-.123zm46.493.223c-1.7 0-3.4.4-3.7 1-.7 1.1 0 1.3 2.8 1.1 1.9-.3 2.3 1.5.5 2.2-.7.2.1.4 1.7.4 1.7 0 2.5-.2 1.9-.4-.7-.2-1-1.3-.7-2.3.4-1.7 0-2-2.5-2zm13.6 0c-.6 0-.6.6.2 1.5.7.9 1.5 1.3 1.7 1.1.7-.7-.7-2.6-1.9-2.6zm-137.8 2c-1.1 0-2 .2-2 .4s.9.6 2 .9c1.1.3 2 .1 2-.4s-.9-.9-2-.9zm202.91.006c.62.01 1.09.556 1.09 1.494 0 .8-.4 1.5-.9 1.5-1.3 0-2.2-1.6-1.4-2.4.412-.412.838-.6 1.21-.594zm-135.61.094c-1.7.1-2.1.3-1 .6.9.2 1.7.9 1.7 1.4 0 .5.8.9 1.7.9 1.5 0 1.4.2-.3 1.5-1.6 1.2-1.7 1.4-.2 1.5 2.7 0 4.8-1.1 4.8-2.6 0-.8-.9-1.4-2-1.4s-2-.5-2-1c0-.6-1.2-.9-2.7-.9zm75.98.873c-.534-.028-1.093.202-1.58.727-.9.9 4.3 4.3 6.6 4.3.9 0 1.7-.5 1.7-1.1 0-.6-.9-.8-2.1-.4-1.5.5-2.2.2-2.6-1.4-.313-1.312-1.132-2.079-2.02-2.127zm-48.28.027c-.8 0-2.2.5-3 1-1.3.9-1.3 1 0 1 .8 0 2.2-.5 3-1 1.3-.9 1.3-1 0-1zm34.9 0c-.5 0-.9.4-.9 1 0 .5.7 1 1.6 1 .8 0 1.2-.5.9-1-.3-.6-1-1-1.6-1zm-73.6 1c-.8 0-1.3.6-1 1.2.2.7 1 1.2 1.6 1 .6-.1 1.1.3 1.1 1 0 .6.2.9.5.6 1-.9-.7-3.8-2.2-3.8zm78.6 0c-.6 0-.8.7-.5 1.6.3.9.6 1.7.6 2 0 .2.7.1 1.5-.2.8-.4 1.5-.1 1.5.5s.5 1.1 1.1 1.1c.6 0 .9-.8.7-1.8-.2-1-1.1-1.6-2.1-1.4-.9.2-1.7-.2-1.7-.8 0-.5-.5-1-1.1-1zm19.5 0c-.8 0-1.2.5-.9 1 .4.6 1.1.8 1.6.5 1.4-.9 1.1-1.5-.7-1.5zm7.5 0c-.5 0-.7.4-.4 1 .3.5.8 1 1.1 1 .2 0 .4-.5.4-1 0-.6-.5-1-1.1-1zm33.6 0c-.8 0-1.5.7-1.5 1.5s.7 1.5 1.5 1.5 1.5-.7 1.5-1.5-.7-1.5-1.5-1.5zm50.885.117c.114.024.315.183.615.483.6.6 1.4 2.8 1.7 4.9.5 3.1.3 3.7-.9 3.3-1.6-.7-2.1 2-.7 3.8.9 1.2-2.9 5-3.9 3.8-.4-.4-.1-.9.6-1.1.6-.3 1.2-1.3 1.2-2.4 0-1.5-.7-1.9-3.1-1.9-1.9 0-2.8-.4-2.3-1.1.3-.6 0-1.5-.7-2-.9-.6-1-.9-.2-.9.7 0 1.6.8 2.2 1.7.5 1 1.3 1.4 1.7 1 .4-.4.2-1.3-.4-1.9-1.7-1.7-1.5-3.3.3-1.8 1.2 1 1.5.9 1.5-.4 0-.9.7-1.9 1.6-2.3.9-.3 1.3-1.2.9-2.2-.25-.688-.304-1.023-.115-.983zm-74.859.283c-.967.057-1.951.288-2.626.7-1.2.8-1.1 1.2.4 2.3 2.1 1.6 2.2 3.6.2 3.6s-1.9 1.6.1 2.4c2.2.9 2.6.8 1.9-.5-.5-.7.5-.8 2.9-.4 2.4.5 3.6.3 3.6-.4 0-.6-.7-1.1-1.5-1.1-1.3 0-1.8-1.6-1.8-5.5 0-.812-1.563-1.196-3.174-1.1zm-107.608.183c-.21.004-.418.042-.618.117-.7.3-1.3 1.2-1.3 2 0 .9.6 1.3 1.4 1 .7-.3 1.9 0 2.5.6.8.8 1.1.7 1.1-.5 0-1.662-1.608-3.249-3.082-3.217zm188.082.417c.6 0 1 .4 1 1 0 .5-.4 1-1 1-.5 0-1-.5-1-1 0-.6.5-1 1-1zm-81.594.07c.442-.11 1.231.368 2.294 1.43.8.9 1.3 1.9.9 2.2-.7.7-3.6-1.6-3.6-2.8 0-.488.14-.764.406-.83zm56.089.383c-.183-.047-.295.497-.295 1.547 0 1.4.2 1.9.5 1.2.2-.6.2-1.8 0-2.5-.075-.15-.144-.231-.205-.247zm-74.495.547c-.5 0-1 .4-1 1 0 .5.5 1 1 1 .6 0 1-.5 1-1 0-.6-.4-1-1-1zm53 0c.6 0 1 .4 1 1 0 .5-.4 1-1 1-.5 0-1-.5-1-1 0-.6.5-1 1-1zm-114.7.5l-.8 2.2c-.4 1.2-1.9 2.7-3.4 3.2-2.4 1-2.3 1 .9.5 4.3-.8 4.3-.7 3.7-3.6l-.4-2.3zm8.6.5c-.5 0-.7.4-.4 1 .3.5.8 1 1.1 1 .2 0 .4-.5.4-1 0-.6-.5-1-1.1-1zm131.012.05c.513-.1 1.138.2 1.588.95.3.6 1.7.7 3.1.4 1.5-.4 2.4-.2 2.4.6 0 .7-.7 1-1.6.6-1.2-.5-1.4-.1-.8 1.6.5 1.7.3 2-1.2 1.4-1-.4-2.1-.1-2.7.6-.6.9-.7.6-.4-1 .3-1.2.1-2.2-.4-2.2s-.9-.7-.9-1.5c0-.85.4-1.35.912-1.45zm-14.569.148c.879-.006 1.775.77 2.957 2.402l1.9 2.5-2.9-.5c-1.5-.2-3.8-.5-5-.5-1.3-.1-2.3-.6-2.3-1.2 0-.5.4-.8.9-.4.6.3 1.6-.1 2.3-.9.787-.919 1.46-1.397 2.143-1.402zm-87.815.222c-.31.061-.703.53-.928 1.28-.6 1.4-.5 1.5.5.6.7-.7 1-1.5.7-1.8a.288.288 0 0 0-.272-.08zm-94.896.555c-.365-.006-.632.125-.632.425 0 .2.7.7 1.6 1 .8.3 1.2.2.9-.4-.375-.625-1.258-1.015-1.868-1.025zm168.368.025c.6 0 1 .4 1 1 0 .5-.4 1-1 1-.5 0-1-.5-1-1 0-.6.5-1 1-1zm46 0c-.5 0-1 .7-1 1.6 0 .8.5 1.2 1 .9.6-.3 1-1 1-1.6 0-.5-.4-.9-1-.9zm-133.277.467c-.492-.042-.998.183-1.223.633-.9 1.4-.2 2 1.4 1 .8-.6.9-1.1.3-1.5a1.318 1.318 0 0 0-.477-.133zm29.955.031c-.207-.036-.666.314-1.378 1.102-.7.7-1.3 2.1-1.3 3.1.1 1.3.5 1 1.6-1 1.062-2 1.421-3.14 1.078-3.202zm-67.02.452c.654.02 1.654.8 2.342 2.05.6 1.1.7 2 .2 2-1 0-3.2-2.1-3.2-3.2 0-.6.267-.862.659-.85zm-8.058.05c-.2 0-.9.7-1.6 1.5-1 1.2-1 1.5.4 1.5.9 0 1.6-.7 1.6-1.5s-.2-1.5-.4-1.5zm86 0c-.3 0-.8.4-1.1 1-.3.5-.1 1 .4 1 .6 0 1.1-.5 1.1-1 0-.6-.2-1-.4-1zm7.98.027c-.354.062-.58.348-.58.873 0 .5.7 1.2 1.6 1.5 2.4.9 2.8.7 1.4-.9-.875-1.062-1.827-1.578-2.42-1.473zm-40.068.035c-.787-.037-1.562.238-1.912.838-.3.5.4 1.1 1.6 1.4 2.5.7 3.3.3 2.3-1.2-.4-.65-1.2-1-1.988-1.038zm-28.1 1.004c-.15.039-.375.259-.712.634-1 .9-.9 2.3.1 2.3.5 0 .9-.7.9-1.5 0-1.062-.039-1.5-.288-1.434zm106.633.901c.547-.031.955.095.955.433 0 .2.3 1.3.6 2.3.5 1.6.5 1.7-.6.1-.6-1-1.7-1.5-2.7-1.1-1.1.4-1.4.3-.9-.5.437-.688 1.734-1.18 2.645-1.233zM66.652 226c-.6 0-1 .7-1 1.5s.2 1.5.4 1.5.6-.7 1-1.5c.3-.8.1-1.5-.4-1.5zm-19 1c-1.1 0-2 .4-2 .9s.9.7 2 .4c1.1-.3 2-.7 2-.9 0-.2-.9-.4-2-.4zm148.123.094a4.03 4.03 0 0 0-.723.006c-1.1 0-1.4.3-.6.6.7.3 1.6.2 1.9-.1.3-.225.037-.45-.577-.506zm-4.66.242c-.268.009-.463.189-.463.564 0 .5.5 1.3 1 1.6.6.3 1 .2 1-.4 0-.5-.4-1.3-1-1.6a1.012 1.012 0 0 0-.536-.164zm-149.65.803c-.549-.025-.276.773.687 2.261 1 1.4 2.2 2.6 2.7 2.6 1.3 0-1.5-4.3-3.1-4.8a1.082 1.082 0 0 0-.286-.06zm-2.813.861c-.5 0-1 .4-1 1 0 .5.5 1 1 1 .6 0 1-.5 1-1 0-.6-.4-1-1-1zm22 1c-.5 0-1 .5-1 1.1 0 .5.5.7 1 .4.6-.3 1-.8 1-1.1 0-.2-.4-.4-1-.4zm55.4 0c-.8 0-1.2.4-.9 1 .3.5 1 1 1.6 1 .5 0 .9-.5.9-1 0-.6-.7-1-1.6-1zm117.05.322c.199.019.475.178.85.478.7.6 1.9 1 2.7.9.8-.2 2-.6 2.6-.9 1.7-1.1 1.4 6.5-.4 8.6-1.6 1.8-1.6 1.9.3 1.2 1.5-.5 1.7-.4.8.5-.6.6-1 1.7-.9 2.3.2.6.1.8-.1.3-.8-1.4-4.2-.7-5.2 1-.9 1.7-1.1 1.7-2.7.1-2.6-2.5-2.6-11.8-.1-11.8.9 0 1.7-.7 1.7-1.6 0-.75.118-1.11.45-1.078zm-166.94.037c-.333-.027-.66.135-.91.541-.3.5.1 1.4.9 2.1 1.2 1 1.5 1 1.5-.3 0-1.306-.757-2.281-1.49-2.34zm74.252.068a2.4 2.4 0 0 1 .638.173c.9.3 1.6 1.1 1.6 1.6 0 1.3-2.3.5-2.8-1-.15-.525.037-.825.562-.773zm25.513.648c-.175 0-.375.275-.675.825-.4.7-.5 1.5-.2 1.8.9.9 1.9-.4 1.4-1.8-.2-.55-.35-.825-.525-.825zm-64.111.016c-1.398.04-2.164.521-2.164 1.309 0 .8.5 1.8 1 2.1.6.3 1-.1 1-.9s.8-1.7 1.8-1.9c1-.3.6-.5-1-.6a7.497 7.497 0 0 0-.636-.01zm-4.041.003a4.03 4.03 0 0 0-.723.006c-1.1 0-1.4.3-.6.6.7.3 1.6.2 1.9-.1.3-.225.037-.45-.577-.506zm107.245.194a.51.51 0 0 1 .432.212c.3.3-.1 1.2-.9 2-1.2 1.2-1.7 1.2-3.9-.1l-2.5-1.5 2.8.4c1.5.2 3 0 3.3-.5.187-.312.493-.508.768-.512zm48.01.168c.096-.026.21.082.322.344.2.6-.1 2.6-.9 4.2-1.4 3.2-2.8 4-2.8 1.5 0-.9.7-1.8 1.5-2.1.8-.4 1.5-1.6 1.6-2.8 0-.687.117-1.1.278-1.144zM151.152 232c1.4 0 2.5.4 2.5.9s.3 1.8.6 2.8c.4 1.4.4 1.5-.4.4-.6-.8-1.5-1-2.2-.6-.9.6-1.1.4-.5-.5.6-1 .4-1.2-.8-.7-1.1.4-1.7.1-1.7-.8s1-1.5 2.5-1.5zm-41.588.025c-.537-.05-.912.275-.912.975 0 .6-.8 1-1.7.8-1.2-.2-1.7.3-1.5 1.4.2 1-.2 1.8-.8 1.8-.5 0-1-.4-1-.9s-.9-.7-2-.4c-1.9.5-1.9.6.2 2.2 2.8 2.3 7.2 1.6 6.5-1-.6-2.1.8-2.6 1.6-.7.4 1 .8.9 1.6-.2.7-1 .6-1.8-.1-2.7-.65-.8-1.35-1.225-1.888-1.275zm-34.437.15c-.525-.05-1.375.125-2.975.525-2.8.7-3.9 1.9-3 3.3.6.9 1 .8 1.7-.4.5-.9 2-1.6 3.4-1.6s2.2-.4 1.9-1c-.3-.5-.5-.775-1.025-.825zm137.525.325l2 2.5c1 1.4 1.6 2.7 1.3 3-.3.3-.8-.1-1-.8-.3-.6-.9-1-1.4-.6-.5.3-.9-.5-.9-1.8v-2.3zm-172.4.5c-.6 0-.5.5.2 1.2.8.8.9 1.5.1 2.5-.9 1-.6 1.3 1.4 1.3 2.1 0 2.5-.4 2-1.8-.7-1.8-2.2-3.2-3.7-3.2zm21.8 0c-.4 0 0 .8.7 1.7.8 1 1.9 2.1 2.6 2.6 1.4.9.6 4-.8 3.1-.5-.3-.9-.1-.9.5 0 .5.5 1.1 1.1 1.3.7.2 1.2 2.5 1.3 5.1.1 4.7.1 4.7 3.4 4.5 1.7-.1 3.2-.6 3.2-1.1 0-.6.5-.5 1.3 0 1.7 1.4 19.7 1.7 19.7.4 0-.6-.8-1.1-1.7-1.2-1.3 0-1.4-.2-.4-.6.8-.3 1.9 0 2.5.8 1.4 1.8 4.6 2.3 4.6.7 0-.9.3-.9 1.2 0 1.6 1.6 2.8 1.5 2.8-.1 0-.7-.9-1.8-2-2.5s-2-.8-2-.3-.9.7-2 .4c-1.1-.3-2-1-2-1.5s.9-.6 2-.3c1.3.4 2 .2 2-.7.1-.9.5-.7 1.4.4.7 1 1.9 1.8 2.6 1.8.9 0 .7-.7-.6-2.2-1.4-1.6-1.5-2-.4-1.6.8.3 2.9-.1 4.5-.8 2.4-1 2.7-1.4 1.3-1.9-.9-.4-3.1.1-5 1.1-1.8.9-4.2 1.8-5.3 1.9-1.1.1-2.7.5-3.5.8-2.7 1-6 1.5-6 1 0-1.4 4.6-4.4 6.2-4 2.3.6 3.3-1 1.8-2.8-.6-.8-.8-2-.4-2.6.5-.8.3-.9-.6-.4-.7.4-1.6.2-2-.6-1.4-2.2-7.8 2.9-8.2 6.5-.2 1.6-1 3.2-1.8 3.4-1.2.4-1.3.2-.4-.9 1.3-1.7.4-6.1-1.4-6.7-.6-.2-1.2.3-1.2 1.2 0 .9-.4 1.6-.9 1.6-1.3 0-4.1-2.9-4.1-4.3 0-.8-.4-.7-1.2.1-1.5 1.5-3.3 1.5-5-.1-1.6-1.4-5.5-3.7-6.4-3.7zm69.1 0c.8 0 1.5.2 1.5.4s-.7.6-1.5 1c-.8.3-1.5.1-1.5-.4 0-.6.7-1 1.5-1zm-106.724.295a4.46 4.46 0 0 0-.776.005c-1.1.1-2 .7-2 1.3 0 .7.8 1 2 .7 1.1-.3 2-.9 2-1.4 0-.3-.507-.544-1.224-.605zm213.284.343c-.298-.015-.623.074-.96.262-1.5.9-.8 4.1.8 4.1 1.5 0 2.3-1.8 1.4-3.4-.313-.625-.741-.938-1.24-.962zm-27.06.362c.6 0 1 .2 1 .4 0 .3-.4.8-1 1.1-.5.3-1 .1-1-.4 0-.6.5-1.1 1-1.1zm22.6 0c-.9 0-1.6.4-1.6 1 0 .5.4 1 .9 1 .6 0 1.3-.5 1.6-1 .3-.6-.1-1-.9-1zm23.228.602c1 .03 2.172.436 2.172.998 0 .2-.9.4-2.1.4-1.1 0-1.8-.4-1.4-1 .187-.3.727-.417 1.328-.398zm-142.113.295c-.426-.11-.928.453-1.415 1.803-.4 1-1.3 2.2-2 2.6-.7.5-1.1 1.3-.8 1.8.4.5 1.1.7 1.6.4.5-.4.8.4.6 1.7-.1 1.3.4 2.3 1.3 2.5 1.2.3 1.6-.8 1.8-5.2.125-3.375-.375-5.421-1.085-5.603zM51.652 235c-1.1 0-2 .2-2 .4s.9.6 2 .9c1.1.3 2 .1 2-.4s-.9-.9-2-.9zm24.9.038c-.5-.038-.9.412-.9 1.362 0 .8.7 1.6 1.5 2 1.7.6 1.8.4.9-1.8-.4-1-1-1.525-1.5-1.562zm7.593.173a1.357 1.357 0 0 0-.793.389c-1.3 1.3-.7 2.4 1.4 2.4 1.1 0 1.9-.5 1.7-1.2-.375-1.05-1.425-1.706-2.307-1.59zm74.407.789c.6 0 1.1.4 1.1 1 0 .5-.2 1-.4 1-.3 0-.8-.5-1.1-1-.3-.6-.1-1 .4-1zm25.812.1c.263 0 .288.3.288.9 0 .5-.8 1-1.7 1-1.5 0-1.6-.2-.3-1 .95-.6 1.45-.9 1.712-.9zm-125.125.45c-.362.05-.587.2-.587.45 0 .7 2.4 2 3.6 2 1.3 0 .1-1.9-1.6-2.3-.55-.15-1.05-.2-1.413-.15zm-33.15.55c-.512 0-1.587.3-2.937.9-1.3.6-1.5.9-.5.9.8 0 2.2-.4 3-.9.9-.6.95-.9.437-.9zm147.958.29c.603-.054.46.785-.295 2.71-.8 2.2-1 2.2-1.6.5-.5-1.1-.3-2.1.6-2.6.593-.375 1.02-.585 1.295-.61zM54.652 238c-.5 0-1 .4-1 1 0 .5.5 1 1 1 .6 0 1-.5 1-1 0-.6-.4-1-1-1zm139.4 0c.3 0 .8.4 1.1 1 .3.5.1 1-.4 1-.6 0-1.1-.5-1.1-1 0-.6.2-1 .4-1zm15.2 0c.2 0 .4.7.4 1.5s-.4 1.5-1 1.5c-.5 0-.7-.7-.4-1.5.4-.8.8-1.5 1-1.5zm24.4 0c-.5 0-1.2.4-1.5 1-.3.5.3 1 1.5 1s1.8-.5 1.5-1c-.3-.6-1-1-1.5-1zm-114.388.328c-.235-.074-.662.484-1.012 1.272-.4.9-.4 1.9-.1 2.2.2.3.7-.3 1.1-1.2.4-.9.4-1.9.1-2.2a.167.167 0 0 0-.088-.072zM49.652 239c-1.6 0-3 .4-3 .9 0 1.1 3 1.9 4.8 1.4 2.3-.8 1.2-2.3-1.8-2.3zm50 0c-.5 0-1 .4-1 1 0 .5.5 1 1 1 .6 0 1-.5 1-1 0-.6-.4-1-1-1zm104.9 0c.6 0 1.1.4 1.1 1 0 .5-.2 1-.4 1-.3 0-.8-.5-1.1-1-.3-.6-.1-1 .4-1zm-160.3 1c-.9 0-1.6.5-1.6 1.1 0 .7-.9.9-2.1.6-1.5-.4-1.9-.3-1.2.4 1.4 1.4 5.5.8 6.1-.9.2-.6-.3-1.2-1.2-1.2zm155.4 0c.6 0 1 .4 1 1 0 .5-.4 1-1 1-.5 0-1-.5-1-1 0-.6.5-1 1-1zm-15.37.031c.237.058.532.344.87.869.3.5.1 1.2-.5 1.6-.5.3-1-.1-1-.9 0-1.125.234-1.664.63-1.569zm64.77.969c.3 0 .8.4 1.1 1 .3.5.1 1-.4 1-.6 0-1.1-.5-1.1-1 0-.6.2-1 .4-1zm-6.238.138c.238-.038.488.262.838.862.6.9.5 1.7-.3 2.2-1.6 1-2.1.2-1.3-1.9.3-.75.525-1.125.762-1.162zm-109.066.571c-.09.006-.159.129-.196.391-.6 5.2-.3 8.9.9 9.4 2 .7 2.2.6 1.7-.7-.2-.7-.6-2.8-.9-4.6-.325-2.356-1.113-4.515-1.504-4.49zm-85.786.418c-.304.004-.06.248.69.773 1.2.9 1 1.1-1.2 1.1-3.3 0-5.8.9-5.8 2.1 0 .5.9.9 2 .9 1.4 0 2 .7 2 2.1 0 1.8.4 2 2.6 1.5 1.7-.5 2.3-.3 1.9.4-.3.5 0 1 .9 1 .8 0 1.7-.6 1.9-1.3.4-.8.8-.8 1.4-.2 1.4 1.7 5 1.7 8.3 0 3.6-1.9 3.2-3.5-.7-2.7-2.4.4-2.6.3-1.6-.9s.7-1.7-1.7-2.6c-2.5-.9-3-.9-3 .4s-.3 1.3-1.5.3c-1.3-1.1-1.4-1-1 .3 1 2.5-1.3 2.9-2.6.5-.7-1.3-1.1-2.5-1-2.8.1-.2-.3-.6-1.1-.8a2.406 2.406 0 0 0-.49-.073zm83.079.89c-.621.058-1.614 1.058-2.49 2.683-.7 1.6-1.5 3.1-1.7 3.5-.2.5.3.8 1.1.8 1.3 0 3.7-3.9 3.7-6 0-.712-.238-1.017-.61-.983zm61.71.058c.55 0 .9.475.9 1.425 0 .7.8 1.9 1.8 2.4 1.5.9 1.5 1 .1 1.1-.9 0-2-.7-2.3-1.6-.4-1-1.2-1.4-2.2-1-1.4.5-1.5.4-.4-.9.8-.95 1.55-1.425 2.1-1.425zm9.436.01c.22-.016.54-.01.965.015 1.1 0 2.9.4 4 .9 1.8.8 1.8.9-.5.9-1.4 0-3.2-.4-4-.9-.9-.6-1.125-.862-.465-.914zm-127.507.021c.42.003.347.819-.328 2.394-.7 1.4-1.6 2.5-2.2 2.5-1.6-.1-4.5-2.6-3.8-3.3.3-.4 1.2-.2 1.9.4.9.7 1.6.6 2.6-.5.875-1.006 1.5-1.496 1.828-1.494zm112.067.008c.284-.038.492.917.605 2.886.2 2.7-.1 3-2.8 3-1.8 0-2.8-.4-2.4-1 .3-.6 1.2-1 1.9-1 .8 0 1.6-.9 1.9-2 .306-1.225.574-1.856.795-1.886zm-123.714.066c-.206.051-.356.595-.281 1.42 0 1.1.3 1.4.6.6.3-.7.2-1.6-.1-1.9-.075-.1-.15-.138-.22-.12zm161.233.339c-.519.034-.964.269-1.214.581-1.1 1.8 1.1 3.2 2.5 1.6.9-1.2.8-1.6-.3-2a2.083 2.083 0 0 0-.986-.181zm-207.314.506c-.475 0-1.3.325-2.3.975-1.3.8-1.3 1 .2 1 .9 0 2-.5 2.3-1 .4-.65.275-.975-.2-.975zm-15.177.069a4.03 4.03 0 0 0-.723.006c-1.1 0-1.4.3-.6.6.7.3 1.6.2 1.9-.1.3-.225.037-.45-.577-.506zm235 0c.614.056.877.281.577.506-.3.3-1.2.4-1.9.1-.8-.3-.5-.6.6-.6a4.03 4.03 0 0 1 .723-.006zm13.523 0c.129.057.391.594.654 1.206.3.9-.6 1.4-2.7 1.5l-3.1.2 2.5-1.4c1.4-.8 2.6-1.4 2.6-1.5.012-.012.028-.014.046-.006zM20.152 245c-.9 0-1.5.5-1.3 1.1.2.6.8 1 1.3 1s1.1-.4 1.3-1c.2-.6-.4-1.1-1.3-1.1zm124 0c.9 0 1.5.5 1.3 1.1-.2.6-.8 1-1.3 1s-1.1-.4-1.3-1c-.2-.6.4-1.1 1.3-1.1zm-96.6 1c.6 0 1.1.4 1.1 1 0 .5-.2 1-.4 1-.3 0-.8-.5-1.1-1-.3-.6-.1-1 .4-1zm189.6 0c1.4 0 2.5.4 2.5.9 0 1.5-1.8 2.3-2.5 1.1-.4-.6-1.1-.8-1.6-.5-.5.4-.9.1-.9-.4 0-.6 1.1-1.1 2.5-1.1zm-61.894.06c.636-.06 1.706.628 2.894 1.94 1 1.1 1.5 2 1.1 2-1.4 0-4.6-2.1-4.6-3 0-.6.224-.905.606-.94zM33.252 247c-.3 0-.8.4-1.1 1-.3.5-.1 1 .4 1 .6 0 1.1-.5 1.1-1 0-.6-.2-1-.4-1zm6.4 0c-.8 0-2.2.5-3 1-1.3.9-1.3 1 0 1 .8 0 2.2-.5 3-1 1.3-.9 1.3-1 0-1zm17.1 0c.5 0 .9.4.9 1 0 .5-.7 1-1.6 1-.8 0-1.2-.5-.9-1 .3-.6 1-1 1.6-1zm154.237.012c-1.262-.037-2.337.288-2.337.988 0 .5-.6.9-1.2.7-.7-.1-1.3.5-1.3 1.3 0 .9 1.1 1.6 2.9 1.8 2.6.3 2.8.2 1.7-1.2-.8-.9-1.1-1.9-.8-2.3.9-.8 3.8 1.7 3.1 2.8-.3.5.2.6 1 .3 1.9-.7 2-1.6.4-3.2-.75-.75-2.2-1.15-3.463-1.188zm10.975.113c-.187 0-.412.225-.712.675-.4.7-1.6 1-2.7.7-1.5-.5-1.9-.1-1.9 1.5 0 1.7.3 1.9 1.9 1 2.5-1.3 3.4-1.3 2.6 0-.3.5-.1 1 .4 1 .6 0 1.1-.5 1.1-1 0-.7.7-.7 2.1 0 1.1.7 2.3.9 2.7.6.3-.3.1-.6-.5-.6s-.9-1-.7-2.2c.2-1.3.2-1.7-.2-1.1-.7 1.6-3.1 1.7-3.6.1-.15-.45-.3-.675-.488-.675zm31.572.437c.32-.017.703.026 1.116.138 1.1.3 2 .7 2 .9 0 .2-.9.4-2 .4s-2-.4-2-.9c0-.312.352-.508.884-.538zm-224.584.776a.954.954 0 0 0-.6.362c-.4.3-.7 1.1-.7 1.7 0 .6.5.5 1.2-.2.6-.6.9-1.4.7-1.7-.15-.15-.375-.2-.6-.162zm13.004.589c-.186.048-.304.198-.304.473 0 .2.7.9 1.5 1.6 1.3 1.1 1.4 1 .9-.4-.375-1.05-1.538-1.819-2.096-1.673zm-31.734.12c-.33.056-.57.328-.57.853 0 .5.7 1.1 1.4 1.4 1 .4 1.3.1.9-.9-.375-.938-1.18-1.446-1.73-1.353zm28.33.953c-.6 0-.7.4-.4 1 .3.5 1.1 1 1.6 1 .6 0 .7-.5.4-1-.3-.6-1.1-1-1.6-1zm67.223 1.094a4.03 4.03 0 0 0-.723.006c-1.1 0-1.4.3-.6.6.7.3 1.6.2 1.9-.1.3-.225.037-.45-.577-.506z"/></svg>